<svg viewBox="0 0 88 52" fill="none" xmlns="http://www.w3.org/2000/svg"><path d="M9.6.1c.87 0 1.61.53 1.93 1.29a2.1 2.1 0 0 1 3.16 1.81v1.1a2.1 2.1 0 0 1 3 1.9v8a6.1 6.1 0 0 1-6.1 6.1h-1a6.09 6.09 0 0 1-4.63-2.14l-.08-.07-5-4.7a2.47 2.47 0 0 1-.22-3.36 2.37 2.37 0 0 1 3.24-.4l.6.43v-5.86a2.1 2.1 0 0 1 3-1.9v-.1c0-1.16.94-2.1 2.1-2.1Zm0 1.2c-.5 0-.9.4-.9.9v7.1h-1.2v-5.1a.9.9 0 1 0-1.8 0v8.24l-.16-.11-2.35-1.74c-.5-.37-1.2-.29-1.6.2-.42.5-.38 1.27.1 1.72l5 4.7.11.1h.01a4.9 4.9 0 0 0 3.79 1.8h1c2.7 0 4.9-2.2 4.9-4.91v-8a.9.9 0 1 0-1.8 0v3.1h-1.2v-6.1a.9.9 0 0 0-1.8 0v6.1h-1.2v-7.1c0-.5-.4-.9-.9-.9Z" fill="#1859FF" stroke="#1859FF" stroke-width=".2"/><path d="M9.6 1.2a1 1 0 0 0-1 1v7h-1v-5a1 1 0 0 0-2 0v8.04l-2.35-1.73c-.55-.4-1.3-.31-1.74.22-.45.54-.4 1.37.12 1.85l5 4.7.1.1a4.99 4.99 0 0 0 3.87 1.82h1a5 5 0 0 0 5-5v-8a1 1 0 0 0-2 0v3h-1v-6a1 1 0 0 0-2 0v6h-1v-7a1 1 0 0 0-1-1Z" fill="#fff"/><path fill="#1859FF" d="M22.2 23.2h65v28h-65z"/><path d="M32.46 43.2h-1.86l4.19-11.64h2.02l4.2 11.64h-1.87l-3.3-9.52h-.08l-3.3 9.52Zm.31-4.56h6.05v1.48h-6.05v-1.48Zm9.78 7.83v-12h1.65v1.42h.15c.1-.18.24-.4.42-.63.19-.24.45-.45.78-.63a2.7 2.7 0 0 1 1.3-.27 3.4 3.4 0 0 1 3.19 2.07c.32.67.48 1.48.48 2.42a5.7 5.7 0 0 1-.47 2.43 3.35 3.35 0 0 1-3.18 2.1c-.53 0-.97-.1-1.3-.28a2.3 2.3 0 0 1-.79-.62 4.73 4.73 0 0 1-.43-.64h-.1v4.63h-1.7Zm1.66-7.63c0 .61.09 1.15.27 1.61.17.46.43.82.77 1.09.34.25.75.38 1.24.38a2 2 0 0 0 1.27-.4c.34-.27.6-.64.77-1.1.18-.48.27-1 .27-1.58 0-.58-.09-1.1-.26-1.55a2.37 2.37 0 0 0-.77-1.09c-.34-.26-.77-.4-1.28-.4-.5 0-.91.13-1.25.38-.34.26-.6.61-.77 1.07-.17.45-.26.98-.26 1.59Zm7.16-2.9v-1.47h7.36v1.47h-2.84v7.26h-1.66v-7.26h-2.86Zm10.23 10.53a3.55 3.55 0 0 1-1.16-.18l.41-1.4c.31.09.59.12.83.11a1 1 0 0 0 .64-.27c.2-.17.36-.45.5-.84l.22-.58-3.2-8.84h1.82l2.21 6.78h.1l2.2-6.78h1.83l-3.6 9.9c-.17.45-.38.83-.64 1.15-.26.32-.56.56-.92.71-.35.16-.77.24-1.24.24Zm8 0v-12h1.65v1.42h.14c.1-.18.24-.4.43-.63.18-.24.44-.45.77-.63a2.7 2.7 0 0 1 1.3-.27 3.4 3.4 0 0 1 3.2 2.07c.31.67.47 1.48.47 2.42a5.7 5.7 0 0 1-.47 2.43 3.35 3.35 0 0 1-3.18 2.1c-.52 0-.96-.1-1.3-.28a2.35 2.35 0 0 1-.78-.62 4.73 4.73 0 0 1-.44-.64h-.1v4.63h-1.7Zm1.66-7.63c0 .61.09 1.15.26 1.61.18.46.44.82.78 1.09.33.25.75.38 1.24.38a2 2 0 0 0 1.27-.4c.34-.27.6-.64.77-1.1.18-.48.27-1 .27-1.58 0-.58-.09-1.1-.26-1.55a2.38 2.38 0 0 0-.78-1.09c-.34-.26-.76-.4-1.27-.4-.5 0-.91.13-1.25.38-.34.26-.6.61-.77 1.07-.18.45-.26.98-.26 1.59Z" fill="#fff"/></svg>