<svg viewBox="0 0 95 51" fill="none" xmlns="http://www.w3.org/2000/svg"><g clip-path="url(#a)"><path d="m1.95 2.15 19.27 9.22 1.08.51-1.13.4-8.64 3.06-4.55 7.9-.6 1.04-.32-1.14-5.82-20.41-.3-1.06 1 .48Z" fill="#1859FF" stroke="#1859FF"/><path fill="#1859FF" d="M21 23h74v28h-74z"/><path d="M39.94 35.15h-1.77a2.71 2.71 0 0 0-1.06-1.74c-.27-.2-.57-.35-.9-.45a3.53 3.53 0 0 0-2.86.35 3.5 3.5 0 0 0-1.25 1.49c-.3.65-.45 1.44-.45 2.38 0 .95.15 1.75.45 2.4.3.65.73 1.14 1.26 1.48a3.63 3.63 0 0 0 2.84.35c.33-.1.63-.25.9-.45a2.75 2.75 0 0 0 1.07-1.71h1.77a4.75 4.75 0 0 1-1.59 2.82 5.06 5.06 0 0 1-3.21 1.09c-1.01 0-1.9-.24-2.7-.72a5 5 0 0 1-1.86-2.06 7.03 7.03 0 0 1-.68-3.2c0-1.24.23-2.3.69-3.2a4.97 4.97 0 0 1 4.55-2.78c.61 0 1.19.1 1.72.27a4.56 4.56 0 0 1 2.51 2.01c.29.49.47 1.04.57 1.67Zm5.73 8.03a3.75 3.75 0 0 1-3.65-2.12 5.29 5.29 0 0 1-.5-2.37c0-.9.16-1.68.5-2.36a3.9 3.9 0 0 1 1.4-1.6 4.28 4.28 0 0 1 3.56-.33 3.47 3.47 0 0 1 2.12 2.13c.2.55.31 1.22.31 2.02v.6h-6.93v-1.27h5.27c0-.45-.1-.85-.27-1.2a2.06 2.06 0 0 0-1.92-1.12 2.23 2.23 0 0 0-2.07 1.26c-.19.38-.28.78-.28 1.21v1c0 .58.1 1.08.3 1.49.21.4.5.72.87.93.38.22.81.32 1.3.32.33 0 .62-.04.89-.13a1.83 1.83 0 0 0 1.13-1.1l1.6.28c-.12.47-.35.89-.69 1.24-.33.35-.74.63-1.24.83-.5.19-1.06.29-1.7.29Zm5.63 3.09v-12h1.66v1.42h.14c.1-.18.24-.4.43-.63.18-.24.44-.45.77-.63a2.7 2.7 0 0 1 1.3-.27 3.4 3.4 0 0 1 3.2 2.07c.31.67.47 1.48.47 2.42a5.7 5.7 0 0 1-.47 2.43 3.35 3.35 0 0 1-3.18 2.1c-.53-.01-.96-.1-1.3-.28-.33-.17-.6-.38-.78-.62a4.74 4.74 0 0 1-.44-.64h-.1v4.63h-1.7Zm1.66-7.63c0 .61.1 1.15.27 1.61.18.46.44.82.77 1.09.34.25.75.38 1.24.38a2 2 0 0 0 1.27-.4c.34-.27.6-.64.78-1.11.17-.47.26-.99.26-1.57 0-.58-.08-1.1-.26-1.55a2.37 2.37 0 0 0-.77-1.09 2 2 0 0 0-1.28-.4c-.5 0-.9.13-1.25.38-.34.26-.6.61-.77 1.07-.17.45-.26.98-.26 1.59Zm13.79-4.37v1.47h-3.9v7.26h-1.68v-8.73h5.58Zm5.15 8.91a3.75 3.75 0 0 1-3.65-2.12 5.29 5.29 0 0 1-.5-2.37c0-.9.17-1.68.5-2.36.34-.68.8-1.21 1.4-1.6a4.28 4.28 0 0 1 3.56-.33 3.47 3.47 0 0 1 2.12 2.13c.21.55.32 1.22.32 2.02v.6h-6.94v-1.27h5.27c0-.45-.09-.85-.27-1.2a2.06 2.06 0 0 0-1.91-1.12 2.23 2.23 0 0 0-2.07 1.26c-.2.38-.29.78-.29 1.21v1c0 .58.1 1.08.31 1.49.2.4.5.72.87.93.37.22.8.32 1.3.32.32 0 .62-.04.88-.13a1.83 1.83 0 0 0 1.13-1.1l1.61.28c-.13.47-.36.89-.7 1.24-.32.35-.74.63-1.24.83-.5.19-1.06.29-1.7.29Zm7.3-2.56 3.84-6.35h1.83v8.73h-1.66v-6.35l-3.83 6.35h-1.85v-8.73h1.67v6.35Zm3.12-9.3h1.4c0 .64-.23 1.16-.69 1.56-.45.4-1.06.6-1.83.6-.76 0-1.37-.2-1.82-.6a2 2 0 0 1-.68-1.56h1.4c0 .28.08.53.25.75.16.22.45.33.85.33.4 0 .68-.11.86-.33.17-.21.26-.46.26-.75Z" fill="#fff"/></g><defs><clipPath id="a"><path fill="#fff" d="M0 0h95v51h-95z"/></clipPath></defs></svg>