<svg viewBox="0 0 84 51" fill="none" xmlns="http://www.w3.org/2000/svg"><g clip-path="url(#a)"><path d="m1.95 2.15 19.27 9.22 1.08.51-1.13.4-8.64 3.06-4.55 7.9-.6 1.04-.32-1.14-5.82-20.41-.3-1.06 1 .48Z" fill="#1859FF" stroke="#1859FF"/><path fill="#1859FF" d="M21 23h63v28h-63z"/><path d="M30.28 31.36h2.13l3.7 9.05h.14l3.7-9.05h2.14v11.64h-1.68v-8.42h-.1l-3.44 8.4h-1.38l-3.43-8.4h-.11v8.42h-1.67v-11.64Zm15.89 9.26 3.84-6.35h1.83v8.73h-1.66v-6.35l-3.83 6.35h-1.85v-8.73h1.67v6.35Zm7.96-6.35h1.66v7.26h3.02v-7.26h1.66v7.26h3.02v-7.26h1.66v8.73h-11.02v-8.73Zm15.83 8.93a3.5 3.5 0 0 1-1.5-.31c-.44-.21-.8-.51-1.06-.9a2.6 2.6 0 0 1-.39-1.46 2.1 2.1 0 0 1 1.05-1.97 4 4 0 0 1 1.08-.42c.4-.1.8-.16 1.22-.21l1.27-.15c.33-.04.57-.1.71-.2a.5.5 0 0 0 .23-.44v-.04c0-.5-.14-.88-.43-1.16-.27-.27-.68-.4-1.23-.4a2.2 2.2 0 0 0-1.36.37c-.32.25-.55.53-.67.84l-1.6-.36a3.07 3.07 0 0 1 2.1-2 4.95 4.95 0 0 1 2.61-.1c.4.07.76.22 1.1.44.35.21.63.52.85.92.22.4.33.92.33 1.55v5.8h-1.66v-1.2h-.07a2.63 2.63 0 0 1-1.34 1.18c-.34.14-.76.21-1.24.21Zm.37-1.37c.47 0 .87-.1 1.2-.28a1.95 1.95 0 0 0 1.04-1.7v-1.12a.89.89 0 0 1-.35.17c-.17.05-.37.1-.59.13a68.14 68.14 0 0 1-1.16.16c-.33.05-.63.12-.9.21-.27.1-.49.24-.65.43-.16.18-.24.42-.24.73 0 .42.15.74.46.95.32.21.71.32 1.2.32Z" fill="#fff"/></g><defs><clipPath id="a"><path fill="#fff" d="M0 0h84v51h-84z"/></clipPath></defs></svg>