<svg viewBox="0 0 138 138" fill="none" xmlns="http://www.w3.org/2000/svg"><g clip-path="url(#a)"><path d="M34.46 70.18h-2.79a1.66 1.66 0 0 1-1.15 1.5c-.22.06-.44.1-.67.07-1.34 0-2.09-.98-2.09-2.7v-.11c0-1.75.8-2.71 2.06-2.71a1.53 1.53 0 0 1 1.15.4c.32.29.49.69.48 1.11h2.89c-.24-2.53-2-3.69-4.54-3.69a4.79 4.79 0 0 0-4.66 2.98 4.86 4.86 0 0 0-.33 1.92v.1c0 2.95 1.68 4.9 5.1 4.9 2.53 0 4.36-1.29 4.55-3.77Zm5.37 3.61v-3.78h3.2v3.78h2.8v-9.59h-2.8v3.66h-3.2v-3.66h-2.82v9.59h2.82Zm17.78-3.93v-5.66h-2.83v5.54c0 1.44-.37 2.05-1.53 2.05-1.19 0-1.53-.65-1.53-2v-5.59h-2.8v5.7c0 2.69 1.57 4.05 4.33 4.05 2.7 0 4.36-1.3 4.36-4.09m9.58 3.93v-2.13h-3.69v-7.46h-2.81v9.59h6.5Zm6.71-7.36 1.07 3.69h-2.14l1.07-3.7Zm-4.75 7.36h2.61l.52-1.78h3.24l.52 1.78h2.96l-3.1-9.58h-3.62l-3.13 9.58Zm14.89 0v-4l2.81 4h3.24l-3.77-5.14 3.58-4.45h-2.92l-2.94 3.8v-3.8h-2.81v9.59h2.8Zm17.5-4.8v-.1c0-2.98-2.19-4.82-5.17-4.82a4.9 4.9 0 0 0-4.78 2.95 4.79 4.79 0 0 0-.38 1.93v.11c0 2.88 1.97 4.9 5.12 4.9 3.16 0 5.22-2.02 5.22-4.97Zm-7.41.06v-.11c0-1.75.86-2.73 2.24-2.73 1.37 0 2.25 1.01 2.25 2.71v.11c.01 1.72-.85 2.76-2.23 2.76-1.36 0-2.26-1-2.26-2.75Zm12.05 4.74h3.17l3.2-9.58h-2.62l-2 6.73-1.98-6.73h-3l3.22 9.58Z" fill="#0D1627"/></g><defs><clipPath id="a"><path fill="#fff" transform="translate(24.81 64.05)" d="M0 0h88.38v9.9h-88.38z"/></clipPath></defs></svg>