<svg viewBox="0 0 138 138" fill="none" xmlns="http://www.w3.org/2000/svg"><g clip-path="url(#a)"><path d="M63.53 60.6c1.93 0 2.88 1.03 2.88 2.53v8.07c0 1.53-.95 2.54-2.88 2.54a4.3 4.3 0 0 1-2.76-.93v4.16h-2.26v-16.23h2.26v.82a4.24 4.24 0 0 1 2.76-.97Zm-10.14-.03c2.4 0 3.63.97 3.63 2.92v4.4h-5.43v3.02c0 .77.46 1.14 1.41 1.14h.41c.96 0 1.42-.37 1.42-1.14v-1.47h2.19v1.4c0 1.93-1.21 2.92-3.63 2.92h-.47c-2.39 0-3.62-.97-3.62-2.68v-7.37c0-2.15 1.2-3.14 3.62-3.14h.47Zm18.48 0c2.39 0 3.63.97 3.63 2.92v10.11h-2.27v-.8a4.3 4.3 0 0 1-2.75.94c-1.8 0-2.65-.82-2.65-2.27v-2.34h-.06c0-1.59.65-2.23 2.37-2.7l3.04-.83v-2.18c0-.76-.46-1.17-1.42-1.17h-.36c-.95 0-1.41.4-1.41 1.17v1.82h-2.19v-1.75c0-1.93 1.21-2.92 3.63-2.92h.44Zm15.41.02c1.75 0 2.65.87 2.65 2.28v10.75h-2.26v-10.38c0-.64-.39-.93-1.08-.93-.62 0-1.29.18-2.09.64v10.65h-2.21v-10.36c0-.64-.39-.93-1.08-.93-.62 0-1.29.18-2.08.64v10.65h-2.27v-12.86h2.27v.82a4.3 4.3 0 0 1 2.75-.97c1.16 0 1.93.37 2.34 1.06a5.14 5.14 0 0 1 3.06-1.06Zm-40.84 3.7-3.78 2.9 3.78 2.85v2.42l-5.8-4.38v-1.74l5.8-4.43v2.38Zm52.17 2.05v1.74l-5.8 4.38v-2.42l3.79-2.85-3.78-2.92v-2.36l5.79 4.43Zm-27.49 1.47c-.82.27-1.1.6-1.1 1.34v1.97c0 .62.38.93 1.1.93.7-.02 1.31-.2 2.06-.62v-4.24l-2.06.62Zm-8.26-5.5a3.8 3.8 0 0 0-2.09.66v8.4a3.6 3.6 0 0 0 2.09.66c.82 0 1.31-.31 1.31-1.06v-7.6c0-.75-.46-1.06-1.31-1.06Zm-9.83-.02c-.95 0-1.42.37-1.42 1.13v2.73h3.2v-2.73c0-.76-.47-1.13-1.42-1.13h-.36Z" fill="#0D1627"/></g><defs><clipPath id="a"><path fill="#fff" transform="translate(40.278 60.088)" d="M0 0h58.42v18.49h-58.42z"/></clipPath></defs></svg>