<svg viewBox="0 0 138 138" fill="none" xmlns="http://www.w3.org/2000/svg"><g clip-path="url(#a)"><path fill-rule="evenodd" clip-rule="evenodd" d="M57.77 68.13c1.23-1.92 2.8-2.58 4.07-2.58 1.44 0 3.01.96 2.4 3.98l-1.83 9.31h-5.03l1.4-7.08c.17-.96-.13-1.44-.66-1.44-.52 0-1.09.4-1.26 1.44l-1.4 7.08h-5.03l1.4-7.08c.18-.96-.13-1.44-.65-1.44-.53 0-1.1.4-1.27 1.44l-1.4 7.08h-5.02l2.53-12.94h5.03l-.44 2.23h.22c1.22-1.92 2.8-2.58 4.06-2.58 1.18 0 2.45.66 2.54 2.58h.34Zm13.55-2.23h-5.02l-2.54 12.94h5.03l2.53-12.94Zm4.63 13.34c-2.18 0-4.46-.66-5.94-2.06l2.27-3.32c2.54 1.75 4.76 1.49 4.76.87 0-.39-.65-.65-1.48-.96-1.53-.57-3.67-1.35-3.67-3.84 0-2.89 3.1-4.42 5.63-4.42 1.97 0 3.59.61 5.16 1.75l-2.18 3.23c-2.36-1.61-4.33-1.3-4.33-.6 0 .21.48.38 1.14.6 1.57.57 4.15 1.45 4.15 4.11 0 2.28-2.06 4.64-5.5 4.64Zm17-13.69c-1.27 0-2.84.7-4.07 2.58h-.21l1.53-7.7h-5.03l-3.63 18.41h5.03l1.4-7.08c.22-1.05.74-1.44 1.26-1.44.53 0 .83.48.66 1.44l-1.4 7.08h5.03l1.83-9.3c.61-3.03-.96-3.99-2.4-3.99Zm-20.45-4.67c-.57-1.32-2.36-1.84-3.98-1.14-1.61.7-2.49 2.32-1.92 3.63.57 1.3 2.36 1.83 3.98 1.13 1.61-.7 2.49-2.31 1.92-3.62Z" fill="#0D1627"/></g><defs><clipPath id="a"><path fill="#fff" transform="translate(42.92 59.428)" d="M0 0h52.83v19.8h-52.83z"/></clipPath></defs></svg>