<svg viewBox="0 0 138 138" fill="none" xmlns="http://www.w3.org/2000/svg"><path d="M83.04 83.04h-28.17v-28.17h28.17v28.17Zm-5.74-8.81c-.76 0-1.41.11-1.96.33-.53.2-.98.58-1.26 1.08a3.9 3.9 0 0 0-.44 1.9v.16c0 .78.16 1.42.44 1.9.28.5.73.88 1.26 1.09.55.21 1.2.32 1.96.32.63.01 1.25-.06 1.85-.22.46-.12.87-.38 1.19-.73.32-.38.51-.86.54-1.36h-1.58c-.03.24-.14.47-.32.64-.17.16-.4.27-.63.32-.35.07-.7.1-1.05.1a3.4 3.4 0 0 1-1.1-.17c-.3-.1-.55-.28-.72-.54a1.97 1.97 0 0 1-.26-1.1v-.66a2 2 0 0 1 .26-1.1c.17-.25.42-.44.71-.54a4.87 4.87 0 0 1 2.16-.07c.24.05.45.16.63.32.18.18.29.4.32.64h1.58a2.3 2.3 0 0 0-.54-1.36 2.5 2.5 0 0 0-1.2-.73 6.69 6.69 0 0 0-1.84-.22Zm-3.66-15.9h2.83v5.23h1.59v-5.23h2.83v-1.31h-7.25v1.31Zm-16.6 5.2h1.58v-4.65l2.03 3.94h1.44l2.02-3.94v4.66h1.59v-6.5h-2.26l-2.07 4.3-2.07-4.3h-2.26v6.5Z" fill="#0D1627"/></svg>