<svg viewBox="0 0 138 138" fill="none" xmlns="http://www.w3.org/2000/svg"><g clip-path="url(#a)" fill="#0D1627"><path d="M32.86 56.79c5.67 0 8.51 0 10.28 1.76 1.76 1.76 1.76 4.6 1.76 10.28v1c0 5.68 0 8.52-1.76 10.28-1.77 1.77-4.6 1.77-10.28 1.77h-1c-5.68 0-8.52 0-10.29-1.77-1.76-1.76-1.76-4.6-1.76-10.28v-1c0-5.68 0-8.52 1.76-10.28 1.77-1.76 4.6-1.76 10.28-1.76h1Zm1.82 4.65a1.2 1.2 0 0 0-1.51 1.17v1.47l-3.07-.76a1.2 1.2 0 0 0-1.5 1.17v1.47l-3.07-.76c-.77-.2-1.51.39-1.51 1.17v8.17c0 .7.47 1.3 1.15 1.47l4.86 1.22c.77.19 1.51-.39 1.51-1.18v-1.47l3.06.76c.77.2 1.52-.38 1.52-1.17v-1.47l3.06.76a1.2 1.2 0 0 0 1.51-1.17v-8.17c0-.7-.47-1.3-1.15-1.47l-4.86-1.21Z"/><path d="M32.93 74.93a.5.5 0 0 1-.38-.46l-.2-6.25a1.94 1.94 0 0 0-1.32-1.67.09.09 0 0 0-.1.03.07.07 0 0 0 .02.1c.16.12.6.52.6 1.21l-.01 6.69 1.39.35Zm4.57-1.89a.5.5 0 0 1-.37-.46l-.21-6.24a1.94 1.94 0 0 0-1.32-1.67.09.09 0 0 0-.1.03.07.07 0 0 0 .03.1c.15.12.59.52.59 1.21v6.69l1.38.34Zm21.85-1.84c1.9-.48 3.14-1.94 3.14-3.84 0-2.35-1.88-4-4.52-4h-4.7v12.65h2.17v-4.65h1.54l3.36 4.65h2.55l-3.54-4.8Zm-1.38-5.87c1.36 0 2.3.83 2.3 2.03 0 1.2-.94 2.03-2.3 2.03h-2.53v-4.06h2.53Zm9.81 10.86c1.14 0 2.19-.6 2.79-1.58l.41 1.4h1.56v-9.33h-2.08v5.4c0 1.33-.89 2.26-2.1 2.26-1.2 0-2.03-.93-2.03-2.26v-5.4h-2.08v5.63c0 2.25 1.52 3.88 3.53 3.88Zm11.4 0c2.4 0 4.4-1.36 4.4-3.62 0-2.53-2.08-3.27-3.88-3.88-1.39-.47-2.6-.9-2.6-2.03 0-.98.92-1.5 2-1.5a2.5 2.5 0 0 1 2.41 1.6l2.07-.35a4.56 4.56 0 0 0-4.54-3.23c-2.32 0-4.17 1.33-4.17 3.59 0 2.55 2.08 3.25 3.88 3.84 1.37.45 2.6.88 2.6 2.03 0 1-.92 1.58-2.15 1.58-1.41 0-2.17-.67-2.84-1.87l-2.1.36c.61 2.13 2.57 3.48 4.92 3.48Zm10.06-1.97c-.7 0-1.05-.35-1.05-1.05v-4.7h2.8v-1.79h-2.8v-2.7h-1.56l-.52 2.7h-1.54v1.8h1.54v4.7c0 1.82 1.07 2.83 3.13 2.83h1.75l.19-1.8h-1.94Zm7.88 1.97c2.95 0 5.03-2.01 5.03-4.84 0-2.84-2.08-4.85-5.03-4.85s-5.03 2.01-5.03 4.85c0 2.83 2.08 4.84 5.03 4.84Zm0-1.88c-1.7 0-2.86-1.2-2.86-2.96s1.16-2.97 2.86-2.97 2.86 1.2 2.86 2.97c0 1.75-1.16 2.96-2.86 2.96Zm8.92 1.7v-5.5c0-1.2.58-1.86 1.85-1.86h1.2l-.19-1.97h-.4c-1.1 0-1.95.3-2.58 1.35l-.4-1.35h-1.56v9.33h2.08Zm13.28-4.77c0-2.7-2.02-4.74-4.88-4.74a4.68 4.68 0 0 0-4.89 4.85 4.68 4.68 0 0 0 4.89 4.84c1.95 0 3.8-.92 4.5-2.7l-1.95-.31a2.87 2.87 0 0 1-2.42 1.13c-1.6 0-2.65-.97-2.85-2.4h7.57c.02-.2.03-.42.03-.67Zm-4.88-2.94c1.3 0 2.28.82 2.62 1.99h-5.2c.33-1.2 1.31-2 2.58-2Z"/></g><defs><clipPath id="a"><path fill="#fff" transform="translate(19.81 56.786)" d="M0 0h99.52v25.1h-99.52z"/></clipPath></defs></svg>