<svg viewBox="0 0 138 138" fill="none" xmlns="http://www.w3.org/2000/svg"><path d="m92.52 64.93 2.97-2.2h-9.95v13.15h9.95v-2.2h-7.1v-3.35h6.07v-2.2h-6.08v-3.2h4.14Zm-14.5 2.93h-3.45v-2.93h5.52l2.97-2.2h-11.33v13.15h5.92c3.32 0 5.24-1.5 5.24-4.13 0-2.52-1.72-3.9-4.87-3.9Zm-.47 5.82h-2.98v-3.63h2.98c1.8 0 2.65.6 2.65 1.83 0 1.22-.9 1.8-2.65 1.8Zm26.01-10.94h-5.41v13.14h2.84v-3.72h2.59c3.45 0 5.6-1.8 5.6-4.71 0-2.9-2.15-4.71-5.62-4.71Zm-.07 7.22h-2.52v-5.03h2.52c1.83 0 2.83.9 2.83 2.52 0 1.61-1 2.51-2.83 2.51Zm-36.63 3.08c-.76.4-1.6.62-2.46.62a4.24 4.24 0 0 1-4.42-4.34 4.24 4.24 0 0 1 4.42-4.35 4.3 4.3 0 0 1 2.59.82l2.04-1.5-.13-.13a6.77 6.77 0 0 0-4.59-1.6c-1.96 0-3.74.67-5.04 1.88a6.47 6.47 0 0 0-1.98 4.8 6.79 6.79 0 0 0 1.98 4.88 7.14 7.14 0 0 0 5.02 1.93c2.05 0 3.84-.7 5.05-2l-1.84-1.35-.64.34Zm-18.46-10.39c.51.67.94 1.4 1.3 2.17l-9.95 7.34-4.18-2.63v-3.14l4.16 2.6 8.66-6.34Zm-17.07 6.67c0-.15 0-.28.02-.43l-2.52-.13-.02.54c0 3 1.23 5.74 3.2 7.72l1.8-1.79a8.26 8.26 0 0 1-2.48-5.91Zm8.4-8.39c.15 0 .28 0 .43.02l.13-2.52-.54-.02c-3.02 0-5.75 1.23-7.74 3.2l1.8 1.8a8.33 8.33 0 0 1 5.92-2.48Zm0 16.77-.43-.01-.13 2.51.54.02c3.02 0 5.75-1.22 7.74-3.2l-1.8-1.79a8.2 8.2 0 0 1-5.92 2.48Z" fill="#0D1627"/><path d="m44.47 62.4 2.13-1.58a10.96 10.96 0 0 0-6.87-2.43v2.52a8.5 8.5 0 0 1 4.74 1.48Zm6.21 6.92c0-.67-.07-1.31-.17-1.96l-2.35 1.74v.22a8.33 8.33 0 0 1-2.78 6.21l1.7 1.88a10.9 10.9 0 0 0 3.6-8.1Zm-10.95 8.38a8.35 8.35 0 0 1-6.22-2.77l-1.88 1.7c2 2.22 4.9 3.6 8.1 3.6v-2.52Zm-5.63-14.6-1.7-1.87c-2.21 2-3.6 4.88-3.6 8.09h2.53a8.36 8.36 0 0 1 2.78-6.22Z" fill="#0D1627"/></svg>