<svg viewBox="0 0 138 138" fill="none" xmlns="http://www.w3.org/2000/svg"><path fill-rule="evenodd" clip-rule="evenodd" d="M54.28 74.24a4.94 4.94 0 0 0 4.91-3.69c.28-1 .23-1.86-.2-2.57-.44-.7-1.3-1.08-2.64-1.08a4.83 4.83 0 0 0-4.9 3.65c-.3 1.04-.24 1.9.2 2.57.43.75 1.29 1.12 2.63 1.12Zm.5-1.79c-.4 0-.7-.15-.82-.52-.13-.34-.11-.78.05-1.38.16-.56.4-1 .73-1.38.32-.33.7-.48 1.1-.48.41 0 .7.15.83.48.12.38.1.82-.05 1.38a3.2 3.2 0 0 1-.72 1.38c-.33.37-.7.52-1.12.52Zm66.13-.35c-.37 0-.59-.15-.7-.45-.13-.3-.14-.67 0-1.15.13-.49.36-.9.66-1.16.27-.3.6-.4.94-.44.78 0 1.04.55.77 1.63-.14.49-.35.86-.62 1.16-.35.3-.68.4-1.05.4Zm-2.34-5.03-2.62 9.27h2.69l.86-3.05c.28.6.79.9 1.46.9a4.2 4.2 0 0 0 2.47-.86c.42-.33.78-.72 1.07-1.16.3-.4.55-1 .77-1.67.28-.97.26-1.83-.07-2.54-.32-.7-1-1.08-2.04-1.08-.4 0-.81.12-1.27.3-.47.19-.86.52-1.2.93h-.03l.29-1.04h-2.39Zm-2.21 4.1c.35-1.27.35-2.31-.14-3.1-.45-.78-1.34-1.19-2.6-1.19a4.9 4.9 0 0 0-2.97 1 4.88 4.88 0 0 0-1.9 2.76c-.3 1.12-.19 2.01.39 2.61.53.63 1.34.93 2.46.93.82 0 1.6-.15 2.4-.48.8-.34 1.46-.93 1.96-1.8h-2.57a1.4 1.4 0 0 1-1.17.6c-.38 0-.64-.1-.83-.37-.19-.26-.21-.56-.1-.97h5.07Zm-4.68-1.38c.22-.79.74-1.2 1.57-1.23.33.04.6.15.72.37a1 1 0 0 1 .13.86h-2.42Zm-9.09 4.24 1.4-4.96h-2.31l.56-2h7.3l-.56 2h-2.31l-1.4 4.96h-2.68Zm-1.26-4.32c.13-1.01-.07-1.76-.65-2.2a3.87 3.87 0 0 0-2.24-.63 4.93 4.93 0 0 0-4.88 3.72c-.33 1.15-.21 2.05.36 2.68.54.6 1.34.93 2.45.93a5.4 5.4 0 0 0 2.65-.67c.42-.23.8-.53 1.1-.9.34-.36.57-.81.8-1.33h-2.69c-.1.27-.28.5-.5.7-.2.23-.5.34-.83.34-.41 0-.67-.15-.76-.48-.1-.3-.1-.71.06-1.27.05-.19.15-.41.25-.63.1-.23.2-.45.33-.64.13-.18.32-.33.5-.44.18-.12.38-.19.64-.19.3 0 .5.11.6.3.14.15.14.4.09.7h2.72Zm-13.02 2.94c-.6 0-.84-.19-.74-.56a.88.88 0 0 1 .37-.52c.18-.11.35-.19.59-.23.2-.07.48-.1.7-.15.3-.07.54-.14.82-.22-.1.48-.28.86-.56 1.2-.32.33-.7.48-1.18.48Zm3.9 1.34.04-.11a.57.57 0 0 1-.18-.45c0-.11 0-.26.05-.45l.92-3.24c.11-.4.22-.78.25-1.15.05-.31 0-.63-.16-.9-.15-.26-.43-.44-.88-.6a6.08 6.08 0 0 0-1.87-.22 6.6 6.6 0 0 0-3 .6c-.7.41-1.14 1-1.35 1.75h2.65c.16-.3.32-.48.54-.6a1.6 1.6 0 0 1 1.15 0c.17.08.24.23.2.49-.12.3-.43.48-.94.56l-.77.1c-.31.05-.62.08-.98.16-.3 0-.61.07-.9.18-.32.08-.66.23-.93.38a2.62 2.62 0 0 0-1.24 1.64c-.2.66-.08 1.19.31 1.52.34.37.86.52 1.5.52a4.09 4.09 0 0 0 2.75-.93l-.06.75h2.9Zm-23.11.04 1.4-4.96h-2.35l.56-2h7.34l-.57 2h-2.34l-1.4 4.96h-2.64Zm-5.87-1.93c-.38 0-.6-.15-.7-.45-.14-.3-.14-.67 0-1.15.13-.49.36-.9.65-1.16.27-.3.6-.4.95-.44.78 0 1.03.55.77 1.63-.14.49-.36.86-.63 1.16-.34.3-.67.4-1.04.4Zm-2.35-5.03-2.61 9.27h2.68l.86-3.05c.28.6.8.9 1.46.9a4.2 4.2 0 0 0 2.48-.86c.41-.33.78-.72 1.07-1.16.3-.4.54-1 .77-1.67a3.7 3.7 0 0 0-.07-2.54c-.32-.7-1-1.08-2.04-1.08-.41 0-.82.12-1.28.3-.46.19-.85.52-1.2.93h-.03l.3-1.04h-2.39Zm-18.77 6.96h2.65l1.4-4.96h2.12l-1.4 4.96h2.68l1.96-6.97h-7.44l-1.97 6.97Zm.4-4.32c.14-1.01-.06-1.76-.65-2.2a3.87 3.87 0 0 0-2.24-.63 4.93 4.93 0 0 0-4.88 3.72c-.33 1.15-.2 2.05.36 2.68.54.6 1.34.93 2.46.93.93 0 1.85-.22 2.64-.67.42-.23.8-.53 1.11-.9.33-.36.57-.81.79-1.33h-2.68c-.11.27-.28.5-.5.7-.21.23-.5.34-.84.34-.4 0-.67-.15-.76-.48-.1-.3-.1-.71.06-1.27.05-.19.15-.41.25-.63.1-.23.2-.45.33-.64.13-.18.32-.33.5-.44.18-.12.39-.19.65-.19.3 0 .49.11.58.3.15.15.15.4.1.7h2.72Zm34.84-4.81 1.83 8.52 6.67-8.58-5.31 3.74-3.19-3.68Zm-.55 2.17-1.98 6.94h3.43l-1.45-6.94Zm8.43 0-5.3 6.94h3.31l1.99-6.94Zm-51.09-3.64-6.49 7.35-14.4-7.3 13.62 2.88 7.27-2.93Z" fill="#0D1627"/><path fill-rule="evenodd" clip-rule="evenodd" d="m14.55 77.92 7.6-8.62 16.88 8.54-15.96-3.36-8.52 3.44Zm11.9-17.16a2.28 2.28 0 0 0 .36 4.52 2.28 2.28 0 0 0-.37-4.52Z" fill="#0D1627"/></svg>