<svg viewBox="0 0 138 138" fill="none" xmlns="http://www.w3.org/2000/svg"><g clip-path="url(#a)"><path d="M74.26 77.7c0 2.11 1.55 2.57 2.32 2.53 2.57 0 3.2-1.84 3.2-2.76v-5.42h-1.98v-1.99h4.09v9.84h1.44v1.88h-3.32v-1.88c-.7 1.77-2.73 2.14-3.65 2.1-3.27 0-4.1-2.28-4.1-3.42v-6.53h-1.76v-1.99h3.76v7.63Zm-17.25 4.08h-2.21v-1.99h2.21v2Zm5.64-9.29c1.88-2.2 2.54-2.43 3.65-2.43h1.99v3.54h-2v-1.77h-.65c-.78 0-2.88 1.24-2.88 3.1v4.86h5.09v2h-8.85v-2h2v-7.85h-2v-1.88h3.65v2.43Zm15.04-17.02c2.3 0 4.12 1.03 4.75 1.54v2.88h-2.21v-1.88c-.07-.26-.62-.77-2.21-.77-2 0-4.1 1.1-4.1 4.3 0 3.21 2.33 4.1 3.77 4.1 1.43 0 2.43-.55 3.42-1.44l1.66 1.1c-.66.78-2.54 2.33-4.75 2.33-2.77 0-6.3-2-6.3-6.08 0-4.1 3.1-6.08 5.97-6.08Zm-12.94 8.84 3.1-8.84h3.42v2.1h-1.99l-3.64 9.95h-2l-3.53-9.84h-2v-2.21h3.54l3.1 8.84Z" fill="#0D1627"/></g><defs><clipPath id="a"><path fill="#fff" transform="translate(54.145 55.466)" d="M0 0h29.71v27.07h-29.71z"/></clipPath></defs></svg>