<svg viewBox="0 0 138 138" fill="none" xmlns="http://www.w3.org/2000/svg"><g clip-path="url(#a)"><path fill-rule="evenodd" clip-rule="evenodd" d="m41.53 57.69-1.07 2.92h14.8l1.07-2.92h-14.8Zm-1.6 4.38-1.07 2.93h14.8l1.07-2.93h-14.8Zm-1.6 4.39-1.07 2.92h14.8l1.07-2.92h-14.8Z" fill="#0D1627"/><mask id="b" style="mask-type:luminance" maskUnits="userSpaceOnUse" x="59" y="62" width="41" height="19"><path d="M59.46 80.05h40.51v-17.92h-40.5v17.92Z" fill="#fff"/></mask><g mask="url(#b)"><path fill-rule="evenodd" clip-rule="evenodd" d="M68.72 70.5v.06c.68.25 1.32.68 1.66.96a4.24 4.24 0 0 1 1.51 3.5c0 2.46-1.3 4.22-3.41 4.78a8.9 8.9 0 0 1-2.59.25h-6.43v-17.92h5.7c1.16 0 1.96.06 2.67.25 2.06.55 3.41 1.98 3.41 4.24 0 1.21-.43 2.24-1.13 2.92-.31.3-.74.68-1.39.96Zm-5.69 1.89v4.71h2.46c.74 0 1.42-.06 1.91-.52.5-.47.7-1.06.7-1.83 0-.6-.15-1.15-.45-1.55-.53-.65-1.17-.81-2.28-.81h-2.34Zm-.03-3.1h2c.61 0 .92 0 1.23-.1.83-.24 1.35-.98 1.35-2 0-1.22-.55-1.74-1.35-2a5.47 5.47 0 0 0-1.35-.12h-1.88v4.22Zm14.24 10.76v-14.91h-5.13v-3.01h14.27l-1.02 3h-4.55v14.92h-3.57Zm10.25 0v-17.92h11.56l-1.01 3h-7.02v3.97h2.86c2.31 0 3.51.56 4.34 1.28.65.55 1.75 1.8 1.75 4.24a5.16 5.16 0 0 1-2.09 4.44c-1.1.77-2.27.99-4.64.99h-5.75Zm3.53-3h2.68c1.01 0 1.63-.26 2.06-.82.22-.27.52-.77.52-1.7 0-.93-.3-1.58-.92-2.05-.37-.28-.86-.43-1.7-.43h-2.64v5Z" fill="#0D1627"/></g></g><defs><clipPath id="a"><path fill="#fff" transform="translate(37.26 57.685)" d="M0 0h62.84v22.54h-62.84z"/></clipPath></defs></svg>