<svg width="84" height="51" viewBox="0 0 84 51" fill="none" xmlns="http://www.w3.org/2000/svg">
<g clip-path="url(#clip0_8234_2645)">
<path d="M1.9457 2.14561L21.2178 11.3653L22.2985 11.8828L21.1697 12.2816L12.5259 15.3446L7.98119 23.2466L7.3881 24.2794L7.06137 23.1351L1.24434 2.72873L0.941189 1.66511L1.9457 2.14561Z" fill="#1859FF" stroke="#1859FF"/>
<rect width="63" height="28" transform="translate(21 23)" fill="#1859FF"/>
<path d="M30.2783 31.3638H32.409L36.1135 40.4092H36.2499L39.9545 31.3638H42.0851V43.0001H40.4147V34.5797H40.3067L36.8749 42.9831H35.4885L32.0567 34.574H31.9488V43.0001H30.2783V31.3638Z" fill="white"/>
<path d="M46.1661 40.6195L50.0127 34.2729H51.8422V43.0001H50.1775V36.6479L46.3479 43.0001H44.5013V34.2729H46.1661V40.6195Z" fill="white"/>
<path d="M54.1263 34.2729H55.7911V41.5285H58.8081V34.2729H60.4729V41.5285H63.49V34.2729H65.1547V43.0001H54.1263V34.2729Z" fill="white"/>
<path d="M69.963 43.1933C69.4099 43.1933 68.9099 43.091 68.463 42.8865C68.016 42.6782 67.6618 42.377 67.4005 41.9831C67.1429 41.5891 67.0141 41.1062 67.0141 40.5342C67.0141 40.0418 67.1088 39.6365 67.2982 39.3183C67.4876 39.0001 67.7433 38.7482 68.0653 38.5626C68.3872 38.377 68.7471 38.2369 69.1448 38.1422C69.5425 38.0475 69.9478 37.9755 70.3607 37.9263C70.8834 37.8657 71.3077 37.8164 71.6334 37.7785C71.9592 37.7369 72.1959 37.6706 72.3437 37.5797C72.4914 37.4888 72.5653 37.341 72.5653 37.1365V37.0967C72.5653 36.6005 72.4251 36.216 72.1448 35.9433C71.8683 35.6706 71.4554 35.5342 70.9062 35.5342C70.3342 35.5342 69.8834 35.6611 69.5539 35.9149C69.2281 36.1649 69.0028 36.4433 68.8778 36.7501L67.2812 36.3865C67.4706 35.8562 67.7471 35.4282 68.1107 35.1024C68.4781 34.7729 68.9005 34.5342 69.3778 34.3865C69.855 34.235 70.3569 34.1592 70.8834 34.1592C71.2319 34.1592 71.6012 34.2009 71.9914 34.2842C72.3853 34.3638 72.7528 34.5115 73.0937 34.7274C73.4384 34.9433 73.7206 35.252 73.9403 35.6535C74.1599 36.0513 74.2698 36.5683 74.2698 37.2047V43.0001H72.6107V41.807H72.5425C72.4327 42.0266 72.2679 42.2426 72.0482 42.4547C71.8285 42.6668 71.5463 42.8429 71.2016 42.9831C70.8569 43.1232 70.444 43.1933 69.963 43.1933ZM70.3323 41.8297C70.802 41.8297 71.2035 41.7369 71.5368 41.5513C71.874 41.3657 72.1296 41.1232 72.3039 40.824C72.4819 40.521 72.5709 40.1971 72.5709 39.8524V38.7274C72.5103 38.788 72.3929 38.8448 72.2187 38.8979C72.0482 38.9471 71.8531 38.9907 71.6334 39.0285C71.4137 39.0626 71.1997 39.0948 70.9914 39.1251C70.7831 39.1516 70.6088 39.1744 70.4687 39.1933C70.1391 39.235 69.838 39.3051 69.5653 39.4035C69.2963 39.502 69.0804 39.6441 68.9175 39.8297C68.7584 40.0115 68.6789 40.2539 68.6789 40.557C68.6789 40.9774 68.8342 41.2956 69.1448 41.5115C69.4554 41.7236 69.8512 41.8297 70.3323 41.8297Z" fill="white"/>
</g>
<defs>
<clipPath id="clip0_8234_2645">
<rect width="84" height="51" fill="white"/>
</clipPath>
</defs>
</svg>
