<svg width="88" height="52" viewBox="0 0 88 52" fill="none" xmlns="http://www.w3.org/2000/svg">
<path d="M9.5957 0.100586C10.468 0.100675 11.2139 0.632842 11.5312 1.38965C11.8434 1.20581 12.2074 1.10059 12.5957 1.10059C13.7553 1.1007 14.6953 2.04044 14.6953 3.2002V4.30273C14.9682 4.17302 15.2737 4.10059 15.5957 4.10059C16.7553 4.1007 17.6953 5.04044 17.6953 6.2002V14.2002C17.6953 17.5691 14.9645 20.2997 11.5957 20.2998H10.5957C8.73765 20.2998 7.0733 19.468 5.95605 18.1602C5.92966 18.137 5.90279 18.114 5.87695 18.0898L0.87207 13.3838C-0.0678816 12.5001 -0.16206 11.022 0.660156 10.0264C1.46606 9.05038 2.88065 8.87209 3.90137 9.62598L4.49512 10.0635V4.2002C4.49512 3.04037 5.43587 2.10059 6.5957 2.10059C6.91736 2.10062 7.22245 2.17231 7.49512 2.30176V2.2002C7.49512 1.0404 8.43587 0.100586 9.5957 0.100586ZM9.5957 1.2998C9.09863 1.2998 8.69531 1.70312 8.69531 2.2002V9.2998H7.49512V4.2002C7.49512 3.7032 7.09258 3.29992 6.5957 3.2998C6.09863 3.2998 5.69531 3.70312 5.69531 4.2002V12.4434L5.53613 12.3252L3.18848 10.5908C2.68281 10.2175 1.9867 10.3036 1.58496 10.79C1.16644 11.297 1.21489 12.0578 1.69434 12.5088L6.69922 17.2148C6.7321 17.2457 6.76563 17.2753 6.7998 17.3027L6.80762 17.3096L6.81445 17.3174C7.71327 18.4064 9.07361 19.1006 10.5957 19.1006H11.5957C14.3018 19.1005 16.4951 16.9063 16.4951 14.2002V6.2002C16.4951 5.7032 16.0926 5.29992 15.5957 5.2998C15.0986 5.2998 14.6953 5.70312 14.6953 6.2002V9.2998H13.4951V3.2002C13.4951 2.7032 13.0926 2.29992 12.5957 2.2998C12.0992 2.2998 11.6963 2.70207 11.6953 3.19824V9.2998H10.4951V2.2002C10.4951 1.7032 10.0927 1.29992 9.5957 1.2998Z" fill="#1859FF" stroke="#1859FF" stroke-width="0.2"/>
<path d="M9.59546 1.2002C9.04316 1.2002 8.59546 1.6479 8.59546 2.2002V9.2002H7.59546V4.2002C7.59546 3.6479 7.14766 3.2002 6.59546 3.2002C6.04316 3.2002 5.59546 3.6479 5.59546 4.2002V12.245L3.24806 10.5107C2.69946 10.1054 1.94336 10.1991 1.50786 10.7264C1.05566 11.2741 1.10776 12.0951 1.62576 12.5821L6.63066 17.288C6.66546 17.3207 6.70106 17.3516 6.73726 17.3807C7.65426 18.4919 9.04216 19.2002 10.5955 19.2002H11.5955C14.3569 19.2002 16.5955 16.9616 16.5955 14.2002V6.2002C16.5955 5.6479 16.1477 5.2002 15.5955 5.2002C15.0432 5.2002 14.5955 5.6479 14.5955 6.2002V9.2002H13.5955V3.2002C13.5955 2.6479 13.1477 2.2002 12.5955 2.2002C12.0438 2.2002 11.5965 2.6468 11.5955 3.1982V9.2002H10.5955V2.2002C10.5955 1.6479 10.1478 1.2002 9.59546 1.2002Z" fill="white"/>
<rect width="65" height="28" transform="translate(22.2002 23.2002)" fill="#1859FF"/>
<path d="M32.4613 43.2003H30.5977L34.7852 31.564H36.8136L41.0011 43.2003H39.1374L35.8477 33.6776H35.7567L32.4613 43.2003ZM32.7738 38.6435H38.8192V40.1208H32.7738V38.6435Z" fill="white"/>
<path d="M42.5451 46.4731V34.4731H44.2042V35.8878H44.3462C44.4447 35.706 44.5868 35.4958 44.7724 35.2571C44.958 35.0185 45.2156 34.8102 45.5451 34.6321C45.8746 34.4503 46.3103 34.3594 46.8519 34.3594C47.5565 34.3594 48.1853 34.5375 48.7383 34.8935C49.2913 35.2496 49.725 35.7628 50.0394 36.4333C50.3576 37.1037 50.5167 37.9106 50.5167 38.8537C50.5167 39.7969 50.3595 40.6056 50.0451 41.2799C49.7307 41.9503 49.2989 42.4674 48.7496 42.831C48.2004 43.1909 47.5735 43.3708 46.869 43.3708C46.3387 43.3708 45.9049 43.2818 45.5678 43.1037C45.2345 42.9257 44.9731 42.7174 44.7837 42.4787C44.5943 42.2401 44.4485 42.028 44.3462 41.8424H44.244V46.4731H42.5451ZM44.2099 38.8367C44.2099 39.4503 44.2989 39.9882 44.4769 40.4503C44.6549 40.9124 44.9125 41.2742 45.2496 41.5356C45.5868 41.7931 45.9996 41.9219 46.4883 41.9219C46.9959 41.9219 47.4201 41.7875 47.761 41.5185C48.1019 41.2458 48.3595 40.8765 48.5337 40.4106C48.7118 39.9446 48.8008 39.42 48.8008 38.8367C48.8008 38.2609 48.7137 37.7439 48.5394 37.2856C48.369 36.8272 48.1114 36.4655 47.7667 36.2003C47.4258 35.9352 46.9996 35.8026 46.4883 35.8026C45.9959 35.8026 45.5792 35.9295 45.2383 36.1833C44.9012 36.4371 44.6455 36.7912 44.4712 37.2458C44.297 37.7003 44.2099 38.2306 44.2099 38.8367Z" fill="white"/>
<path d="M51.369 35.939V34.4731H58.7326V35.939H55.886V43.2003H54.2269V35.939H51.369Z" fill="white"/>
<path d="M61.6033 46.4731C61.3496 46.4731 61.1185 46.4522 60.9102 46.4106C60.7018 46.3727 60.5465 46.331 60.4442 46.2856L60.8533 44.8935C61.1639 44.9768 61.4405 45.0128 61.6829 45.0015C61.9253 44.9901 62.1393 44.8992 62.3249 44.7287C62.5143 44.5583 62.681 44.2799 62.8249 43.8935L63.0352 43.314L59.842 34.4731H61.6602L63.8704 41.2458H63.9613L66.1715 34.4731H67.9954L64.3988 44.3651C64.2321 44.8196 64.02 45.2041 63.7624 45.5185C63.5049 45.8367 63.198 46.0753 62.842 46.2344C62.4859 46.3935 62.073 46.4731 61.6033 46.4731Z" fill="white"/>
<path d="M69.592 46.4731V34.4731H71.2511V35.8878H71.3931C71.4916 35.706 71.6336 35.4958 71.8192 35.2571C72.0049 35.0185 72.2624 34.8102 72.592 34.6321C72.9215 34.4503 73.3571 34.3594 73.8988 34.3594C74.6033 34.3594 75.2321 34.5375 75.7852 34.8935C76.3382 35.2496 76.7719 35.7628 77.0863 36.4333C77.4045 37.1037 77.5636 37.9106 77.5636 38.8537C77.5636 39.7969 77.4064 40.6056 77.092 41.2799C76.7776 41.9503 76.3458 42.4674 75.7965 42.831C75.2473 43.1909 74.6204 43.3708 73.9158 43.3708C73.3855 43.3708 72.9518 43.2818 72.6147 43.1037C72.2814 42.9257 72.02 42.7174 71.8306 42.4787C71.6412 42.2401 71.4954 42.028 71.3931 41.8424H71.2908V46.4731H69.592ZM71.2567 38.8367C71.2567 39.4503 71.3458 39.9882 71.5238 40.4503C71.7018 40.9124 71.9594 41.2742 72.2965 41.5356C72.6336 41.7931 73.0465 41.9219 73.5352 41.9219C74.0427 41.9219 74.467 41.7875 74.8079 41.5185C75.1488 41.2458 75.4064 40.8765 75.5806 40.4106C75.7586 39.9446 75.8477 39.42 75.8477 38.8367C75.8477 38.2609 75.7605 37.7439 75.5863 37.2856C75.4158 36.8272 75.1583 36.4655 74.8136 36.2003C74.4727 35.9352 74.0465 35.8026 73.5352 35.8026C73.0427 35.8026 72.6261 35.9295 72.2852 36.1833C71.948 36.4371 71.6924 36.7912 71.5181 37.2458C71.3439 37.7003 71.2567 38.2306 71.2567 38.8367Z" fill="white"/>
</svg>
