<svg width="95" height="51" viewBox="0 0 95 51" fill="none" xmlns="http://www.w3.org/2000/svg">
<g clip-path="url(#clip0_8234_2653)">
<path d="M1.9457 2.14561L21.2178 11.3653L22.2985 11.8828L21.1697 12.2816L12.5259 15.3446L7.98119 23.2466L7.3881 24.2794L7.06137 23.1351L1.24434 2.72873L0.941189 1.66511L1.9457 2.14561Z" fill="#1859FF" stroke="#1859FF"/>
<rect width="74" height="28" transform="translate(21 23)" fill="#1859FF"/>
<path d="M39.9431 35.1478H38.1704C38.1022 34.769 37.9753 34.4357 37.7897 34.1478C37.6041 33.8599 37.3768 33.6156 37.1079 33.4148C36.8389 33.2141 36.5378 33.0625 36.2045 32.9603C35.8749 32.858 35.5245 32.8069 35.1533 32.8069C34.4829 32.8069 33.8825 32.9754 33.3522 33.3125C32.8257 33.6497 32.409 34.144 32.1022 34.7955C31.7992 35.447 31.6476 36.2425 31.6476 37.1819C31.6476 38.1288 31.7992 38.9281 32.1022 39.5796C32.409 40.2311 32.8276 40.7235 33.3579 41.0569C33.8882 41.3902 34.4848 41.5569 35.1476 41.5569C35.5151 41.5569 35.8635 41.5076 36.1931 41.4091C36.5264 41.3069 36.8276 41.1572 37.0965 40.9603C37.3654 40.7633 37.5927 40.5228 37.7783 40.2387C37.9677 39.9508 38.0984 39.6213 38.1704 39.25L39.9431 39.2557C39.8484 39.8277 39.6647 40.3542 39.392 40.8353C39.123 41.3125 38.7764 41.7254 38.3522 42.0739C37.9317 42.4186 37.4507 42.6857 36.909 42.875C36.3673 43.0644 35.7764 43.1591 35.1363 43.1591C34.1287 43.1591 33.231 42.9205 32.4431 42.4432C31.6552 41.9622 31.034 41.2747 30.5795 40.3807C30.1287 39.4868 29.9033 38.4205 29.9033 37.1819C29.9033 35.9394 30.1306 34.8732 30.5851 33.983C31.0397 33.0891 31.6609 32.4035 32.4488 31.9262C33.2367 31.4451 34.1325 31.2046 35.1363 31.2046C35.7537 31.2046 36.3295 31.2936 36.8635 31.4716C37.4014 31.6459 37.8844 31.9035 38.3124 32.2444C38.7404 32.5815 39.0946 32.9944 39.3749 33.483C39.6552 33.9678 39.8446 34.5228 39.9431 35.1478Z" fill="white"/>
<path d="M45.6689 43.1762C44.8091 43.1762 44.0686 42.9925 43.4474 42.625C42.8299 42.2538 42.3527 41.733 42.0155 41.0625C41.6822 40.3883 41.5155 39.5985 41.5155 38.6932C41.5155 37.7993 41.6822 37.0114 42.0155 36.3296C42.3527 35.6478 42.8224 35.1156 43.4246 34.733C44.0307 34.3504 44.739 34.1591 45.5496 34.1591C46.0421 34.1591 46.5193 34.2406 46.9814 34.4035C47.4436 34.5663 47.8583 34.822 48.2258 35.1705C48.5932 35.519 48.883 35.9716 49.0951 36.5285C49.3072 37.0815 49.4133 37.7538 49.4133 38.5455V39.1478H42.4758V37.875H47.7485C47.7485 37.4281 47.6576 37.0322 47.4758 36.6875C47.2939 36.3391 47.0383 36.0644 46.7087 35.8637C46.383 35.6629 46.0004 35.5625 45.561 35.5625C45.0837 35.5625 44.6671 35.68 44.311 35.9148C43.9587 36.1459 43.686 36.4489 43.4928 36.8239C43.3034 37.1951 43.2087 37.5985 43.2087 38.0341V39.0285C43.2087 39.6118 43.311 40.108 43.5155 40.5171C43.7239 40.9262 44.0136 41.2387 44.3849 41.4546C44.7561 41.6667 45.1898 41.7728 45.686 41.7728C46.008 41.7728 46.3015 41.7273 46.5667 41.6364C46.8318 41.5417 47.061 41.4016 47.2542 41.216C47.4474 41.0303 47.5951 40.8012 47.6974 40.5285L49.3053 40.8182C49.1765 41.2917 48.9455 41.7065 48.6121 42.0625C48.2826 42.4148 47.8678 42.6894 47.3678 42.8864C46.8716 43.0796 46.3053 43.1762 45.6689 43.1762Z" fill="white"/>
<path d="M51.2982 46.2728V34.2728H52.9573V35.6875H53.0993C53.1978 35.5057 53.3399 35.2955 53.5255 35.0569C53.7111 34.8182 53.9687 34.6099 54.2982 34.4319C54.6278 34.25 55.0634 34.1591 55.605 34.1591C56.3096 34.1591 56.9384 34.3372 57.4914 34.6932C58.0444 35.0493 58.4781 35.5625 58.7925 36.233C59.1107 36.9035 59.2698 37.7103 59.2698 38.6535C59.2698 39.5966 59.1126 40.4053 58.7982 41.0796C58.4838 41.75 58.052 42.2671 57.5028 42.6307C56.9535 42.9906 56.3266 43.1705 55.6221 43.1705C55.0918 43.1705 54.6581 43.0815 54.3209 42.9035C53.9876 42.7254 53.7262 42.5171 53.5368 42.2785C53.3474 42.0398 53.2016 41.8277 53.0993 41.6421H52.9971V46.2728H51.2982ZM52.963 38.6364C52.963 39.25 53.052 39.7879 53.23 40.25C53.4081 40.7122 53.6656 41.0739 54.0028 41.3353C54.3399 41.5928 54.7528 41.7216 55.2414 41.7216C55.749 41.7216 56.1732 41.5872 56.5141 41.3182C56.855 41.0455 57.1126 40.6762 57.2868 40.2103C57.4649 39.7444 57.5539 39.2197 57.5539 38.6364C57.5539 38.0607 57.4668 37.5436 57.2925 37.0853C57.1221 36.6269 56.8645 36.2652 56.5198 36C56.1789 35.7349 55.7528 35.6023 55.2414 35.6023C54.749 35.6023 54.3323 35.7292 53.9914 35.983C53.6543 36.2368 53.3986 36.591 53.2243 37.0455C53.0501 37.5 52.963 38.0303 52.963 38.6364Z" fill="white"/>
<path d="M66.7528 34.2728V35.7387H62.8493V43H61.1732V34.2728H66.7528Z" fill="white"/>
<path d="M71.9033 43.1762C71.0435 43.1762 70.3029 42.9925 69.6817 42.625C69.0643 42.2538 68.587 41.733 68.2499 41.0625C67.9166 40.3883 67.7499 39.5985 67.7499 38.6932C67.7499 37.7993 67.9166 37.0114 68.2499 36.3296C68.587 35.6478 69.0567 35.1156 69.659 34.733C70.2651 34.3504 70.9734 34.1591 71.784 34.1591C72.2764 34.1591 72.7537 34.2406 73.2158 34.4035C73.6779 34.5663 74.0927 34.822 74.4601 35.1705C74.8276 35.519 75.1173 35.9716 75.3295 36.5285C75.5416 37.0815 75.6476 37.7538 75.6476 38.5455V39.1478H68.7101V37.875H73.9829C73.9829 37.4281 73.892 37.0322 73.7101 36.6875C73.5283 36.3391 73.2726 36.0644 72.9431 35.8637C72.6173 35.6629 72.2348 35.5625 71.7954 35.5625C71.3181 35.5625 70.9014 35.68 70.5454 35.9148C70.1931 36.1459 69.9204 36.4489 69.7272 36.8239C69.5378 37.1951 69.4431 37.5985 69.4431 38.0341V39.0285C69.4431 39.6118 69.5454 40.108 69.7499 40.5171C69.9582 40.9262 70.248 41.2387 70.6192 41.4546C70.9904 41.6667 71.4242 41.7728 71.9204 41.7728C72.2423 41.7728 72.5359 41.7273 72.801 41.6364C73.0662 41.5417 73.2954 41.4016 73.4885 41.216C73.6817 41.0303 73.8295 40.8012 73.9317 40.5285L75.5397 40.8182C75.4109 41.2917 75.1798 41.7065 74.8465 42.0625C74.517 42.4148 74.1022 42.6894 73.6022 42.8864C73.106 43.0796 72.5397 43.1762 71.9033 43.1762Z" fill="white"/>
<path d="M79.1974 40.6194L83.0439 34.2728H84.8735V43H83.2087V36.6478L79.3792 43H77.5326V34.2728H79.1974V40.6194ZM82.3167 31.3182H83.7144C83.7144 31.9584 83.4871 32.4792 83.0326 32.8807C82.5818 33.2785 81.972 33.4773 81.203 33.4773C80.4379 33.4773 79.8299 33.2785 79.3792 32.8807C78.9284 32.4792 78.703 31.9584 78.703 31.3182H80.0951C80.0951 31.6023 80.1784 31.8542 80.3451 32.0739C80.5117 32.2898 80.7977 32.3978 81.203 32.3978C81.6008 32.3978 81.8849 32.2898 82.0553 32.0739C82.2296 31.858 82.3167 31.6061 82.3167 31.3182Z" fill="white"/>
</g>
<defs>
<clipPath id="clip0_8234_2653">
<rect width="95" height="51" fill="white"/>
</clipPath>
</defs>
</svg>
