<svg width="138" height="138" viewBox="0 0 138 138" fill="none" xmlns="http://www.w3.org/2000/svg">
<g clip-path="url(#clip0_8320_4155)">
<path d="M34.458 70.1841H31.671C31.6589 70.4067 31.6019 70.6246 31.5035 70.8247C31.405 71.0248 31.2671 71.2028 31.0981 71.3483C30.9278 71.4948 30.73 71.606 30.5162 71.6753C30.3025 71.7447 30.0771 71.7707 29.8532 71.7521C28.5145 71.7521 27.764 70.7723 27.764 69.042V68.9369C27.764 67.1929 28.5564 66.2268 29.8151 66.2268C30.0252 66.21 30.2366 66.2369 30.4359 66.3057C30.6352 66.3746 30.8181 66.4839 30.9731 66.6268C31.2855 66.9156 31.4592 67.3201 31.4547 67.7422H34.3369C34.1045 65.2074 32.3423 64.0546 29.8021 64.0546C29.1428 64.0221 28.484 64.1262 27.8668 64.3604C27.2497 64.5945 26.6876 64.9537 26.2159 65.4154C25.7475 65.8734 25.3805 66.4247 25.1387 67.0335C24.897 67.6424 24.7858 68.2953 24.8125 68.9498V69.0565C24.8125 71.9959 26.4932 73.9539 29.9095 73.9539C32.4367 73.9539 34.2676 72.6633 34.458 70.1841ZM39.8271 73.7924V70.0134H43.0377V73.7924H45.8354V64.2017H43.0377V67.8641H39.8263V64.2017H37.0119V73.7894L39.8271 73.7924ZM57.6097 69.8626V64.2017H54.7816V69.7422C54.7816 71.1776 54.409 71.794 53.2517 71.794C52.0631 71.794 51.721 71.1372 51.721 69.7818V64.2017H48.9241V69.9022C48.9218 72.5856 50.4913 73.9539 53.2524 73.9539C55.9442 73.9539 57.6105 72.6519 57.6105 69.8626M67.1905 73.7924V71.6599H63.5014V64.2009H60.6862V73.7894L67.1905 73.7924ZM73.9036 66.4287L74.9702 70.1163H72.8255L73.9036 66.4287ZM69.1486 73.7932H71.7596L72.2785 72.0096H75.5165L76.0354 73.7924H78.9999L75.8982 64.207H72.2777L69.1486 73.7932ZM84.0375 73.7932V69.7826L86.852 73.7932H90.0893L86.324 68.655L89.9026 64.2017H86.9762L84.0383 67.9982V64.2017H81.2254V73.7894L84.0375 73.7932ZM101.549 68.9917V68.8843C101.549 65.9053 99.3539 64.0676 96.3741 64.0676C95.7056 64.0273 95.0359 64.1244 94.4062 64.3528C93.7766 64.5812 93.2005 64.9361 92.7132 65.3956C92.2295 65.8519 91.8462 66.4039 91.5875 67.0165C91.3288 67.629 91.2005 68.2888 91.2108 68.9536V69.0603C91.2115 71.941 93.178 73.9539 96.3345 73.9539C99.4872 73.9547 101.549 71.9425 101.549 68.9917ZM94.1303 69.045V68.9369C94.1303 67.1929 94.9905 66.2146 96.368 66.2146C97.7448 66.2146 98.6232 67.2203 98.6232 68.9247V69.0313C98.6316 70.7479 97.7691 71.794 96.3886 71.794C95.0324 71.794 94.1303 70.7883 94.1303 69.045ZM106.175 73.7932H109.352L112.554 64.2063H109.932L107.935 70.9353L105.954 64.2063H102.942L106.175 73.7932Z" fill="#0D1627"/>
</g>
<defs>
<clipPath id="clip0_8320_4155">
<rect width="88.3797" height="9.90462" fill="white" transform="translate(24.8101 64.0498)"/>
</clipPath>
</defs>
</svg>
