<svg width="138" height="138" viewBox="0 0 138 138" fill="none" xmlns="http://www.w3.org/2000/svg">
<g clip-path="url(#clip0_8320_4080)">
<path d="M63.5283 60.5908C65.4585 60.5909 66.4111 61.6251 66.4111 63.1348V71.2002C66.4111 72.7305 65.4585 73.7441 63.5283 73.7441C62.2158 73.7441 61.3149 73.2478 60.7744 72.8135V76.9697H58.5098V60.7354H60.7744V61.5625C61.3149 61.1075 62.2416 60.5908 63.5283 60.5908ZM53.3877 60.5703C55.7812 60.5703 57.0166 61.5423 57.0166 63.4863V67.8916H51.5869V70.9111C51.5871 71.676 52.0499 72.0479 53.002 72.0479H53.4141C54.3659 72.0478 54.8289 71.6759 54.8291 70.9111V69.4424H57.0166V70.8486C57.0166 72.772 55.8069 73.7646 53.3877 73.7646H52.9248C50.5313 73.7646 49.2959 72.7927 49.2959 71.0762V63.7139C49.2959 61.563 50.5056 60.5703 52.9248 60.5703H53.3877ZM71.8662 60.5703C74.2597 60.5703 75.4951 61.5423 75.4951 63.4863V73.5996H73.2305V72.793C72.6128 73.2686 71.7632 73.7441 70.4766 73.7441C68.6753 73.744 67.8262 72.9163 67.8262 71.4688V69.1318H67.7744C67.7745 67.5396 68.4183 66.8985 70.1426 66.4229L73.1797 65.5957V63.4238C73.1796 62.6588 72.7158 62.2451 71.7637 62.2451H71.4033C70.4513 62.2452 69.9884 62.6589 69.9883 63.4238V65.2441H67.8008V63.4863C67.8008 61.5631 69.0098 60.5704 71.4287 60.5703H71.8662ZM87.2832 60.5908C89.0331 60.5908 89.9344 61.4592 89.9346 62.8652V73.6201H87.6689V63.2383C87.6689 62.5973 87.2835 62.3077 86.5889 62.3076C85.9712 62.3076 85.3017 62.4933 84.5039 62.9482V73.5996H82.29V63.2383C82.29 62.5973 81.9046 62.3077 81.21 62.3076C80.5923 62.3076 79.9228 62.4933 79.125 62.9482V73.5996H76.8604V60.7354H79.125V61.5625C79.7684 61.0662 80.6437 60.5908 81.8789 60.5908C83.0369 60.5909 83.8089 60.9631 84.2207 61.6455C85.0185 61.0871 85.9707 60.5909 87.2832 60.5908ZM46.4395 64.293L42.6562 67.1875L46.4395 70.042V72.4619L40.6484 68.0771V66.3398L46.4395 61.9141V64.293ZM98.6074 66.3398V68.0771L92.8164 72.4619V70.042L96.5996 67.1875L92.8164 64.2715V61.9141L98.6074 66.3398ZM71.1201 67.8086C70.2969 68.0774 70.0138 68.4082 70.0137 69.1523V71.1172C70.0137 71.7376 70.3996 72.0478 71.1201 72.0479C71.815 72.0272 72.4333 71.8414 73.1797 71.4277V67.1885L71.1201 67.8086ZM62.8594 62.3076C62.1131 62.3076 61.3921 62.5552 60.7744 62.9688V71.3652C61.3921 71.7995 62.113 72.0273 62.8594 72.0273C63.6827 72.0273 64.1719 71.7171 64.1719 70.9727V63.3623C64.1719 62.6179 63.7085 62.3077 62.8594 62.3076ZM53.0273 62.2871C52.0754 62.2872 51.6124 62.6589 51.6123 63.4238V66.1543H54.8037V63.4238C54.8036 62.6588 54.3398 62.2871 53.3877 62.2871H53.0273Z" fill="#0D1627"/>
</g>
<defs>
<clipPath id="clip0_8320_4080">
<rect width="58.4241" height="18.4886" fill="white" transform="translate(40.2783 60.0879)"/>
</clipPath>
</defs>
</svg>
