<svg width="138" height="138" viewBox="0 0 138 138" fill="none" xmlns="http://www.w3.org/2000/svg">
<g clip-path="url(#clip0_8320_4152)">
<path fill-rule="evenodd" clip-rule="evenodd" d="M57.7749 68.1325C58.9984 66.2089 60.5713 65.5531 61.8383 65.5531C63.2802 65.5531 64.8532 66.5149 64.2414 69.5315L62.4064 78.8435H57.3817L58.7799 71.7611C58.9546 70.7993 58.6488 70.3184 58.1244 70.3184C57.6002 70.3184 57.0321 70.7119 56.8574 71.7611L55.4592 78.8435H50.4345L51.8327 71.7611C52.0074 70.7993 51.7016 70.3184 51.1773 70.3184C50.653 70.3184 50.085 70.7119 49.9102 71.7611L48.512 78.8435H43.4873L46.0215 65.9029H51.0462L50.6093 68.1325H50.8277C52.0512 66.2089 53.6241 65.5531 54.8912 65.5531C56.0709 65.5531 57.338 66.2089 57.4254 68.1325H57.5565H57.7749ZM71.3198 65.9029H66.2951L63.7609 78.8435H68.7856L71.3198 65.9029ZM75.9512 79.237C73.7666 79.237 71.4945 78.5812 70.009 77.1822L72.281 73.8596C74.8152 75.6083 77.0435 75.346 77.0435 74.734C77.0435 74.3405 76.3881 74.0782 75.558 73.7722C74.0287 73.2038 71.8877 72.4169 71.8877 69.925C71.8877 67.0396 74.9899 65.5094 77.5242 65.5094C79.4904 65.5094 81.107 66.1215 82.68 67.2581L80.4953 70.4933C78.1359 68.8758 76.1697 69.1817 76.1697 69.8812C76.1697 70.0998 76.6503 70.2747 77.3057 70.4933C78.8787 71.0616 81.4565 71.936 81.4565 74.6029C81.4565 76.8762 79.4029 79.237 75.9512 79.237ZM92.9478 65.5531C91.6807 65.5531 90.1078 66.2526 88.8844 68.1325H88.6659L90.1952 60.4381H85.1705L81.5439 78.8435H86.5686L87.9668 71.7611C88.1853 70.7119 88.7096 70.3184 89.2339 70.3184C89.7582 70.3184 90.064 70.7993 89.8893 71.7611L88.4911 78.8435H93.5158L95.351 69.5315C95.9627 66.5149 94.3897 65.5531 92.9478 65.5531ZM72.4995 60.8753C71.9315 59.5637 70.1401 59.0391 68.5234 59.7386C66.9068 60.4381 66.0329 62.0557 66.6009 63.3672C67.1689 64.6788 68.9603 65.2034 70.5769 64.5039C72.1936 63.8044 73.0675 62.1868 72.4995 60.8753Z" fill="#0D1627"/>
</g>
<defs>
<clipPath id="clip0_8320_4152">
<rect width="52.8246" height="19.8092" fill="white" transform="translate(42.9199 59.4277)"/>
</clipPath>
</defs>
</svg>
