<svg width="138" height="138" viewBox="0 0 138 138" fill="none" xmlns="http://www.w3.org/2000/svg">
<path d="M83.041 83.041H54.8682V54.8682H83.041V83.041ZM77.3037 74.2295C76.544 74.2295 75.8862 74.3403 75.3447 74.5557C74.812 74.7623 74.3635 75.1439 74.0781 75.6387C73.7986 76.1191 73.6523 76.7606 73.6406 77.5469V77.6953C73.6494 78.4814 73.7986 79.1221 74.0781 79.6025C74.3635 80.0974 74.812 80.4818 75.3447 80.6855C75.8862 80.9009 76.544 81.0117 77.3037 81.0117C77.9269 81.0234 78.5476 80.9502 79.1475 80.79C79.6073 80.6678 80.0206 80.4146 80.3379 80.0625C80.6611 79.681 80.8537 79.203 80.8828 78.7021H79.2988L79.2959 78.7051C79.2668 78.9438 79.1561 79.1681 78.9844 79.3398C78.8068 79.5029 78.5883 79.6135 78.3496 79.6602C78.0031 79.7271 77.6531 79.7597 77.3008 79.7568C76.9253 79.7626 76.5524 79.7102 76.1943 79.5938C75.9003 79.4976 75.6503 79.3079 75.4785 79.0518C75.3067 78.7955 75.2188 78.4258 75.2188 77.957V77.29C75.2188 76.8184 75.3067 76.4486 75.4785 76.1924C75.6503 75.9362 75.9003 75.7465 76.1943 75.6504C76.5524 75.5369 76.9253 75.4815 77.3008 75.4873C77.6531 75.4815 78.006 75.5141 78.3496 75.584C78.5854 75.6306 78.8039 75.7413 78.9844 75.9043C79.1561 76.0761 79.2668 76.2974 79.2959 76.5391H80.8828C80.8537 76.0382 80.664 75.5602 80.3379 75.1787C80.0177 74.8266 79.6044 74.5764 79.1475 74.4512C78.5447 74.291 77.924 74.2178 77.3037 74.2295ZM73.6387 58.3301H76.4697V63.5576H78.0566V58.3301H80.8867V57.0176H73.6387V58.3301ZM57.0381 63.5371H58.6221V58.8838L60.6455 62.8154H62.0898L64.1143 58.8838V63.5371H65.6982V57.0352H63.4414L61.3711 61.3359L59.3008 57.0352H57.0381V63.5371Z" fill="#0D1627"/>
</svg>
