<svg width="138" height="138" viewBox="0 0 138 138" fill="none" xmlns="http://www.w3.org/2000/svg">
<g clip-path="url(#clip0_8320_4054)">
<path d="M32.8569 56.7861C38.5344 56.7861 41.3734 56.7861 43.1372 58.5498C44.9009 60.3136 44.9009 63.1526 44.9009 68.8301V69.834C44.9009 75.5115 44.901 78.3505 43.1372 80.1143C41.3734 81.878 38.5344 81.8779 32.8569 81.8779H31.853C26.1755 81.8779 23.3366 81.878 21.5728 80.1143C19.809 78.3505 19.8091 75.5115 19.8091 69.834V68.8301C19.8091 63.1525 19.809 60.3136 21.5728 58.5498C23.3366 56.7861 26.1755 56.7861 31.853 56.7861H32.8569ZM34.6802 61.4375C33.9123 61.2457 33.1675 61.8235 33.1675 62.6113V64.083L30.104 63.3184C29.3363 63.1266 28.5916 63.7037 28.5913 64.4912V65.9639L25.5278 65.1992C24.7602 65.0078 24.0163 65.5855 24.0161 66.373V74.5449C24.0163 75.2384 24.4906 75.8429 25.1665 76.0117L30.0288 77.2266C30.7966 77.4183 31.5405 76.8405 31.5405 76.0527V74.5791L34.604 75.3447C35.3719 75.5365 36.1167 74.9587 36.1167 74.1709V72.6992L39.1802 73.4648C39.9479 73.6566 40.6927 73.0787 40.6929 72.291V64.1191C40.6927 63.4257 40.2184 62.8212 39.5425 62.6523L34.6802 61.4375Z" fill="#0D1627"/>
<path d="M32.9252 74.9272C32.7122 74.873 32.5607 74.6847 32.5532 74.4651L32.3417 68.2247C32.2805 67.3988 31.6674 66.7419 31.0268 66.5485C30.9908 66.5376 30.9524 66.5523 30.9311 66.5832C30.9094 66.6146 30.9178 66.6582 30.948 66.6816C31.1062 66.804 31.5416 67.2037 31.5416 67.893L31.5403 74.5763L32.9252 74.9272Z" fill="#0D1627"/>
<path d="M37.5024 73.0449C37.2896 72.9917 37.1379 72.804 37.1304 72.5848L36.9188 66.3448C36.8577 65.5189 36.2446 64.862 35.6039 64.6686C35.5679 64.6577 35.5295 64.6724 35.5082 64.7033C35.4866 64.7348 35.4949 64.7783 35.5251 64.8017C35.6833 64.9241 36.1188 65.3238 36.1188 66.0132L36.1175 72.6987L37.5024 73.0449Z" fill="#0D1627"/>
<path d="M59.3456 71.201C61.2457 70.7165 62.4943 69.2632 62.4943 67.3614C62.4943 65.011 60.6122 63.3604 57.9701 63.3604H53.2651V76.0094H55.4367V71.3624H56.975L60.3407 76.0094H62.8924L59.3456 71.201ZM57.9701 65.334C59.3274 65.334 60.2686 66.1593 60.2686 67.3614C60.2686 68.5635 59.3274 69.3888 57.9701 69.3888H55.4367V65.334H57.9701Z" fill="#0D1627"/>
<path d="M67.7793 76.1889C68.9193 76.1889 69.9688 75.5968 70.5662 74.61L70.9822 76.0095H72.5387V66.6797H70.4575V72.0802C70.4575 73.4079 69.5708 74.3409 68.3584 74.3409C67.164 74.3409 66.3314 73.4079 66.3314 72.0802V66.6797H64.2505V72.3135C64.2505 74.5562 65.7705 76.1889 67.7793 76.1889Z" fill="#0D1627"/>
<path d="M79.1801 76.1895C81.5869 76.1895 83.5777 74.8259 83.5777 72.5653C83.5777 70.0354 81.4965 69.2998 79.705 68.6898C78.3115 68.2233 77.0992 67.7927 77.0992 66.6624C77.0992 65.6756 78.0219 65.1552 79.1076 65.1552C80.2479 65.1552 81.0622 65.7473 81.5147 66.7521L83.5777 66.4112C82.9261 64.4376 81.2792 63.1816 79.0355 63.1816C76.7191 63.1816 74.8731 64.5093 74.8731 66.77C74.8731 69.3178 76.9543 70.0175 78.7458 70.6096C80.1213 71.0582 81.3516 71.4887 81.3516 72.637C81.3516 73.6418 80.4289 74.2159 79.1983 74.2159C77.7866 74.2159 77.0267 73.5521 76.3572 72.35L74.2578 72.7088C74.8731 74.8439 76.8277 76.1895 79.1801 76.1895Z" fill="#0D1627"/>
<path d="M89.2396 74.2152C88.5339 74.2152 88.19 73.8743 88.19 73.1746V68.4738H90.9948V66.6796H88.19V63.9883H86.6337L86.1088 66.6796H84.5708V68.4738H86.1088V73.1746C86.1088 75.0046 87.1766 76.0094 89.2396 76.0094H90.9948L91.1759 74.2152H89.2396Z" fill="#0D1627"/>
<path d="M97.1227 76.1896C100.072 76.1896 102.153 74.1801 102.153 71.3453C102.153 68.5105 100.072 66.501 97.1227 66.501C94.173 66.501 92.0918 68.5105 92.0918 71.3453C92.0918 74.1801 94.173 76.1896 97.1227 76.1896ZM97.1227 74.3057C95.4216 74.3057 94.2634 73.1036 94.2634 71.3453C94.2634 69.587 95.4216 68.3849 97.1227 68.3849C98.8238 68.3849 99.9817 69.587 99.9817 71.3453C99.9817 73.1036 98.8238 74.3057 97.1227 74.3057Z" fill="#0D1627"/>
<path d="M106.043 76.0095V70.5013C106.043 69.3172 106.622 68.6533 107.889 68.6533H109.084L108.903 66.6797H108.505C107.401 66.6797 106.55 66.9847 105.917 68.0253L105.519 66.6797H103.962V76.0095H106.043Z" fill="#0D1627"/>
<path d="M119.324 71.2376C119.324 68.5464 117.298 66.501 114.438 66.501C111.579 66.501 109.552 68.5284 109.552 71.3453C109.552 74.1622 111.579 76.1896 114.438 76.1896C116.393 76.1896 118.239 75.2746 118.945 73.4983L116.99 73.1754C116.538 73.8392 115.669 74.3057 114.565 74.3057C112.973 74.3057 111.923 73.3368 111.724 71.9015H119.288C119.306 71.7041 119.324 71.4888 119.324 71.2376ZM114.438 68.2952C115.741 68.2952 116.719 69.1205 117.062 70.2867H111.851C112.195 69.0846 113.172 68.2952 114.438 68.2952Z" fill="#0D1627"/>
</g>
<defs>
<clipPath id="clip0_8320_4054">
<rect width="99.5154" height="25.0917" fill="white" transform="translate(19.8091 56.7861)"/>
</clipPath>
</defs>
</svg>
