<svg width="138" height="138" viewBox="0 0 138 138" fill="none" xmlns="http://www.w3.org/2000/svg">
<path d="M92.5182 64.9296L95.4916 62.7354H85.5371V75.8792H95.4916V73.6849H88.3812V70.3291H94.4574V68.1349H88.3812V64.9296H92.5182Z" fill="#0D1627"/>
<path d="M78.0201 67.8552H74.5727V64.9296H80.0886L83.062 62.7354H71.7285V75.8792H77.6538C80.972 75.8792 82.8896 74.3733 82.8896 71.7489C82.8896 69.232 81.1659 67.8552 78.0201 67.8552ZM77.5461 73.6849H74.5727V70.0494H77.5461C79.356 70.0494 80.1963 70.6518 80.1963 71.8779C80.1963 73.1041 79.2913 73.6849 77.5461 73.6849Z" fill="#0D1627"/>
<path d="M103.557 62.7354H98.1484V75.8792H100.993V72.1576H103.578C107.026 72.1576 109.18 70.3506 109.18 67.4465C109.18 64.5424 107.026 62.7354 103.557 62.7354ZM103.492 69.9634H100.971V64.9296H103.492C105.323 64.9296 106.315 65.8331 106.315 67.4465C106.315 69.0599 105.323 69.9634 103.492 69.9634Z" fill="#0D1627"/>
<path d="M66.8575 73.0398C66.1034 73.4485 65.2631 73.6637 64.4012 73.6637C61.8372 73.6637 59.9842 71.8351 59.9842 69.3182C59.9842 66.8013 61.8372 64.9728 64.4012 64.9728C65.3277 64.9513 66.2327 65.2525 66.9868 65.7903L69.0337 64.2844L68.9044 64.1554C67.7194 63.1013 66.1249 62.5635 64.315 62.5635C62.3543 62.5635 60.5659 63.2303 59.2731 64.435C57.9803 65.6827 57.2478 67.4252 57.2909 69.2322C57.2693 71.0607 57.9803 72.8247 59.2731 74.1154C60.6306 75.3846 62.4405 76.0945 64.2935 76.0515C66.3404 76.0515 68.1287 75.3416 69.3354 74.0509L67.5039 72.6956L66.8575 73.0398Z" fill="#0D1627"/>
<path d="M48.3944 62.6504C48.9115 63.3173 49.3424 64.0487 49.7087 64.8231L39.7542 72.1587L35.5742 69.5342V66.3935L39.7327 68.9964L48.3944 62.6504Z" fill="#0D1627"/>
<path d="M31.3286 69.3171C31.3286 69.1665 31.3286 69.0375 31.3501 68.8869L28.8292 68.7578C28.8292 68.9299 28.8076 69.1235 28.8076 69.2956C28.8076 72.3073 30.0358 75.0393 32.018 77.0184L33.8064 75.2329C32.2766 73.7271 31.3286 71.6404 31.3286 69.3171Z" fill="#0D1627"/>
<path d="M39.7283 60.928C39.8791 60.928 40.0084 60.928 40.1592 60.9495L40.2885 58.4326C40.1161 58.4326 39.9222 58.4111 39.7498 58.4111C36.7333 58.4111 33.9969 59.6373 32.0146 61.6164L33.803 63.4019C35.3113 61.8746 37.4228 60.928 39.7283 60.928Z" fill="#0D1627"/>
<path d="M39.7331 77.7073C39.5822 77.7073 39.453 77.7073 39.3021 77.6858L39.1729 80.2027C39.3452 80.2027 39.5391 80.2242 39.7115 80.2242C42.728 80.2242 45.4644 78.998 47.4467 77.0189L45.6583 75.2334C44.1501 76.7823 42.0601 77.7073 39.7331 77.7073Z" fill="#0D1627"/>
<path d="M44.4707 62.3909L46.6038 60.8205C44.7293 59.3147 42.3376 58.3896 39.7305 58.3896V60.9065C41.4973 60.9281 43.1348 61.4659 44.4707 62.3909Z" fill="#0D1627"/>
<path d="M50.6774 69.3179C50.6774 68.6511 50.6128 68.0057 50.505 67.3604L48.1565 69.1028C48.1565 69.1674 48.1565 69.2534 48.1565 69.3179C48.1565 71.7918 47.0791 74.0076 45.377 75.5349L47.0791 77.4064C49.2769 75.4273 50.6774 72.5232 50.6774 69.3179Z" fill="#0D1627"/>
<path d="M39.7323 77.7067C37.2545 77.7067 35.0352 76.6311 33.5054 74.9316L31.6309 76.6311C33.6347 78.8468 36.5219 80.2236 39.7323 80.2236V77.7067Z" fill="#0D1627"/>
<path d="M34.1081 63.101L32.4059 61.2295C30.1866 63.2301 28.8076 66.1127 28.8076 69.318H31.3286C31.3286 66.8656 32.4059 64.6284 34.1081 63.101Z" fill="#0D1627"/>
</svg>
