<svg width="138" height="138" viewBox="0 0 138 138" fill="none" xmlns="http://www.w3.org/2000/svg">
<path fill-rule="evenodd" clip-rule="evenodd" d="M54.2798 74.2385C55.6204 74.2385 56.6935 73.8665 57.5362 73.1216C58.3582 72.4511 58.8973 71.5946 59.1909 70.552C59.4744 69.5467 59.4175 68.6898 58.9833 67.9824C58.5498 67.2748 57.6862 66.9027 56.3456 66.9027C55.0046 66.9027 53.9319 67.2748 53.0992 67.9824C52.2669 68.6898 51.7274 69.5467 51.4446 70.552C51.151 71.5949 51.208 72.4511 51.6518 73.1216C52.0756 73.8661 52.9392 74.2385 54.2798 74.2385ZM54.7829 72.4511C54.3736 72.4511 54.08 72.3023 53.9617 71.9298C53.8326 71.5949 53.8467 71.1477 54.0145 70.552C54.1719 69.9931 54.4097 69.5467 54.7379 69.1738C55.0556 68.839 55.4325 68.6898 55.8425 68.6898C56.2522 68.6898 56.5454 68.8386 56.6745 69.1738C56.7932 69.5467 56.7787 69.9931 56.6217 70.552C56.4539 71.1481 56.2161 71.5949 55.8984 71.9298C55.5698 72.3019 55.1929 72.4511 54.7829 72.4511ZM120.911 72.0976C120.539 72.0976 120.32 71.9488 120.218 71.6507C120.078 71.3531 120.071 70.9806 120.208 70.4962C120.344 70.0117 120.571 69.6028 120.868 69.3416C121.138 69.0436 121.467 68.932 121.813 68.8951C122.595 68.8951 122.848 69.4536 122.581 70.5334C122.444 71.0175 122.227 71.3899 121.957 71.688C121.613 71.9864 121.283 72.0976 120.911 72.0976ZM118.565 67.0705L115.954 76.3434H118.635L119.496 73.2894C119.775 73.8851 120.287 74.1831 120.957 74.1831C121.776 74.1831 122.594 73.9223 123.433 73.3262C123.849 73.002 124.211 72.6122 124.502 72.172C124.804 71.7624 125.046 71.1663 125.272 70.4962C125.545 69.528 125.525 68.6715 125.203 67.9638C124.881 67.2561 124.204 66.8837 123.161 66.8837C122.751 66.8837 122.348 66.9953 121.885 67.1817C121.423 67.3678 121.031 67.703 120.692 68.1127H120.655L120.948 67.0701L118.565 67.0705ZM116.356 71.1652C116.712 69.8986 116.708 68.8561 116.221 68.074C115.771 67.2915 114.88 66.8822 113.614 66.8822C112.534 66.8822 111.546 67.2171 110.649 67.8876C109.716 68.558 109.092 69.4518 108.756 70.6435C108.442 71.7605 108.563 72.6546 109.139 73.2499C109.669 73.8832 110.479 74.1809 111.596 74.1809C112.415 74.1809 113.202 74.032 114.004 73.6968C114.806 73.3619 115.458 72.7659 115.96 71.9093H113.391C113.264 72.0958 113.073 72.2446 112.855 72.3562C112.675 72.4678 112.441 72.505 112.217 72.505C111.845 72.505 111.579 72.3934 111.391 72.1326C111.204 71.8721 111.176 71.5741 111.291 71.1644H116.356V71.1652ZM111.679 69.787C111.899 69.0049 112.424 68.5949 113.254 68.558C113.578 68.5953 113.845 68.7069 113.968 68.9305C114.129 69.1537 114.194 69.4518 114.099 69.787H111.679ZM102.594 74.0257L103.989 69.0726H101.679L102.245 67.0616H109.544L108.979 69.0726H106.669L105.275 74.0257H102.594ZM101.328 69.7055C101.463 68.7002 101.263 67.9549 100.681 67.5084C100.089 67.0984 99.3324 66.8751 98.4387 66.8751C97.2841 66.8751 96.3063 67.1732 95.41 67.8437C94.5244 68.4769 93.8897 69.4079 93.554 70.5993C93.2288 71.7538 93.3494 72.6475 93.9164 73.2808C94.4563 73.8765 95.2556 74.2118 96.3729 74.2118C97.3038 74.2118 98.2236 73.9881 99.0195 73.5413C99.4364 73.3076 99.8111 73.0055 100.128 72.6475C100.456 72.2755 100.694 71.8286 100.915 71.3069H98.2333C98.1228 71.5771 97.9529 71.8188 97.7362 72.0143C97.5245 72.2379 97.2324 72.3495 96.8972 72.3495C96.4875 72.3495 96.2315 72.201 96.1396 71.8654C96.0373 71.5674 96.041 71.1577 96.1984 70.5993C96.2509 70.4132 96.3509 70.1896 96.4514 69.966C96.5515 69.7424 96.6516 69.5191 96.7785 69.3331C96.9053 69.1467 97.0962 68.9978 97.2767 68.8858C97.4568 68.7742 97.6644 68.6998 97.9248 68.6998C98.2225 68.6998 98.4145 68.8114 98.5112 68.9975C98.6552 69.1463 98.6567 69.4075 98.6098 69.7052H101.328V69.7055ZM88.3089 72.6468C87.7128 72.6468 87.4676 72.4604 87.5725 72.0883C87.6354 71.8647 87.7623 71.6783 87.9428 71.5667C88.1232 71.455 88.2932 71.3806 88.5269 71.3434C88.7342 71.269 89.0054 71.2318 89.2394 71.1946C89.5211 71.1198 89.7656 71.0454 90.0472 70.971C89.9479 71.455 89.7685 71.8275 89.4884 72.1627C89.1702 72.498 88.7929 72.6468 88.3089 72.6468ZM92.2142 73.9874L92.2458 73.8758C92.1015 73.7269 92.0687 73.5781 92.0735 73.4289C92.0676 73.3173 92.0724 73.1684 92.1249 72.982L93.0372 69.742C93.1529 69.332 93.2575 68.9599 93.288 68.5874C93.3439 68.2801 93.2878 67.9629 93.1299 67.6933C92.9799 67.4329 92.6971 67.2465 92.2547 67.0976C91.8127 66.9488 91.2003 66.874 90.3813 66.874C89.1152 66.874 88.0838 67.0976 87.3831 67.4697C86.6717 67.8797 86.2435 68.4754 86.0336 69.22H88.6776C88.8357 68.9223 89.0002 68.7359 89.2179 68.6239C89.4623 68.5499 89.6219 68.5123 89.808 68.5123C89.994 68.5123 90.17 68.5499 90.3724 68.6239C90.538 68.6987 90.6076 68.8475 90.5715 69.1083C90.4502 69.406 90.1373 69.5928 89.6324 69.6672C89.3979 69.7044 89.1271 69.7416 88.8558 69.7788C88.5474 69.8157 88.2393 69.8529 87.8832 69.9277C87.5852 69.9277 87.2663 70.0021 86.9742 70.1137C86.6554 70.1881 86.3153 70.3373 86.05 70.4858C85.7847 70.6342 85.5354 70.8582 85.3133 71.119C85.0908 71.3799 84.9222 71.7151 84.8069 72.1244C84.6182 72.7949 84.7317 73.3162 85.1217 73.6514C85.4636 74.0239 85.9804 74.1727 86.6133 74.1727C87.1346 74.1727 87.5919 74.1355 88.0064 73.9863C88.4577 73.8374 88.9038 73.577 89.3704 73.2417L89.3098 73.9863H92.2142V73.9874ZM69.0982 74.0257L70.4931 69.0726H68.1468L68.7131 67.0616H76.0493L75.483 69.0726H73.1371L71.7421 74.0257H69.0982ZM63.226 72.0976C62.854 72.0976 62.6352 71.9488 62.5325 71.6507C62.393 71.3531 62.3859 70.9806 62.5224 70.4962C62.6586 70.0121 62.886 69.6028 63.1829 69.3416C63.453 69.0436 63.7823 68.932 64.128 68.8951C64.9101 68.8951 65.1623 69.4536 64.8952 70.5334C64.759 71.0175 64.5421 71.3899 64.272 71.688C63.9282 71.9864 63.5985 72.0976 63.226 72.0976ZM60.8808 67.0705L58.2696 76.3434H60.9512L61.811 73.2894C62.0901 73.8851 62.6021 74.1831 63.2726 74.1831C64.0919 74.1831 64.9101 73.9223 65.748 73.3262C66.1647 73.002 66.526 72.6122 66.8177 72.172C67.1195 71.7624 67.3617 71.1663 67.5879 70.4962C67.8606 69.528 67.8409 68.6715 67.5191 67.9638C67.1969 67.2561 66.5193 66.8837 65.4767 66.8837C65.0671 66.8837 64.6634 66.9953 64.2013 67.1817C63.7391 67.3678 63.3466 67.703 63.0076 68.1127H62.9704L63.264 67.0701L60.8808 67.0705ZM42.1144 74.0257H44.7587L46.1529 69.0726H48.276L46.8811 74.0257H49.5626L51.5235 67.0616H44.0752L42.1144 74.0257ZM42.5114 69.7055C42.6457 68.7002 42.4455 67.9549 41.864 67.5084C41.272 67.0984 40.5156 66.8751 39.6215 66.8751C38.4669 66.8751 37.4899 67.1732 36.5931 67.8437C35.7076 68.4769 35.0728 69.4079 34.7372 70.5993C34.4124 71.7538 34.533 72.6475 35.0993 73.2808C35.6391 73.8765 36.4387 74.2118 37.5557 74.2118C38.4866 74.2118 39.4064 73.9881 40.2023 73.5413C40.6192 73.3075 40.9939 73.0054 41.3107 72.6475C41.6389 72.2755 41.8766 71.8286 42.098 71.3069H39.4165C39.3061 71.5771 39.1362 71.8189 38.9194 72.0143C38.7077 72.2379 38.4156 72.3495 38.0803 72.3495C37.6707 72.3495 37.4147 72.201 37.3228 71.8654C37.2205 71.5674 37.2242 71.1577 37.3816 70.5993C37.434 70.4132 37.5341 70.1896 37.6346 69.966C37.7347 69.7424 37.8348 69.5191 37.9616 69.3331C38.0885 69.1467 38.2794 68.9978 38.4599 68.8858C38.6403 68.7742 38.8476 68.6998 39.1084 68.6998C39.406 68.6998 39.598 68.8114 39.6948 68.9975C39.8388 69.1463 39.8399 69.4075 39.7934 69.7052H42.5114V69.7055Z" fill="#0D1627"/>
<path fill-rule="evenodd" clip-rule="evenodd" d="M77.3501 64.8977L79.1811 73.4217L85.8547 64.8408L80.5351 68.5783L77.3501 64.8977Z" fill="#0D1627"/>
<path fill-rule="evenodd" clip-rule="evenodd" d="M76.7996 67.0674L74.8164 74.0081H78.2492L76.7996 67.0674ZM85.2264 67.0674L79.9254 74.0081H83.2436L85.2264 67.0674Z" fill="#0D1627"/>
<path fill-rule="evenodd" clip-rule="evenodd" d="M34.1383 63.4268L27.6549 70.779L13.248 63.4885L26.8668 66.3598L34.1383 63.4268Z" fill="#0D1627"/>
<path fill-rule="evenodd" clip-rule="evenodd" d="M14.5464 77.9161L22.1442 69.2999L39.0283 77.8439L23.0677 74.4784L14.5464 77.9161ZM26.4424 60.7555C25.196 60.8563 24.2609 61.9558 24.3621 63.203C24.4634 64.4502 25.5628 65.3849 26.8093 65.2837C28.0565 65.1828 28.9912 64.0834 28.89 62.8365C28.7891 61.5893 27.6896 60.6547 26.4424 60.7555Z" fill="#0D1627"/>
</svg>
