<svg width="138" height="138" viewBox="0 0 138 138" fill="none" xmlns="http://www.w3.org/2000/svg">
<g clip-path="url(#clip0_8320_4158)">
<path d="M74.2593 77.6914C74.2594 79.8141 75.8076 80.2712 76.5815 80.2344C79.1466 80.2343 79.7876 78.3911 79.7876 77.4697V72.0518H77.7974V70.0615H81.8892V79.9023H83.3257V81.7822H80.0093V79.9023C79.3016 81.6714 77.2813 82.0398 76.3599 82.0029C73.0879 82.0027 72.2693 79.7188 72.269 78.5762V72.0518H70.5005V70.0615H74.2593V77.6914ZM57.0103 81.7822H54.7993V79.792H57.0103V81.7822ZM62.6499 72.4941C64.5293 70.2831 65.1928 70.0615 66.2983 70.0615H68.2886V73.6006H66.2983V71.8311H65.6353C64.8613 71.8311 62.7604 73.0693 62.7603 74.9268V79.792H67.8462V81.7822H59.0015V79.792H60.9917V71.9414H59.0015V70.0615H62.6499V72.4941ZM77.687 55.4668C79.9864 55.4668 81.8141 56.4986 82.4409 57.0146V59.8896H80.23V58.0098C80.1562 57.7518 79.6107 57.2364 78.019 57.2363C76.0289 57.2363 73.9273 58.3415 73.9272 61.5479C73.9272 64.7543 76.2496 65.6387 77.687 65.6387C79.1243 65.6386 80.1197 65.0857 81.1147 64.2012L82.7729 65.3076C82.1094 66.0816 80.23 67.6287 78.019 67.6289C75.2548 67.6289 71.7163 65.6389 71.7163 61.5479C71.7164 57.457 74.8123 55.4668 77.687 55.4668ZM64.7505 64.3125L67.8462 55.4668H71.2739V57.5674H69.2837L65.6353 67.5186H63.645L60.1069 57.6777H58.1167V55.4668H61.6548L64.7505 64.3125Z" fill="#0D1627"/>
</g>
<defs>
<clipPath id="clip0_8320_4158">
<rect width="29.7139" height="27.0726" fill="white" transform="translate(54.1455 55.4658)"/>
</clipPath>
</defs>
</svg>
