<svg width="138" height="138" viewBox="0 0 138 138" fill="none" xmlns="http://www.w3.org/2000/svg">
<g clip-path="url(#clip0_8320_4109)">
<path fill-rule="evenodd" clip-rule="evenodd" d="M41.5289 57.6855L40.4609 60.6108H55.2602L56.3282 57.6855H41.5289ZM39.9266 62.0728L38.8587 64.9975H53.658L54.7259 62.0728H39.9266ZM38.3277 66.4601L37.2598 69.3848H52.0591L53.1263 66.4601H38.3277Z" fill="#0D1627"/>
<mask id="mask0_8320_4109" style="mask-type:luminance" maskUnits="userSpaceOnUse" x="59" y="62" width="41" height="19">
<path d="M59.4634 80.0482H99.9748V62.1289H59.4634V80.0482Z" fill="white"/>
</mask>
<g mask="url(#mask0_8320_4109)">
<path fill-rule="evenodd" clip-rule="evenodd" d="M68.7221 70.4994V70.5611C69.3984 70.8093 70.0445 71.2434 70.383 71.5222C71.4288 72.3904 71.8904 73.5373 71.8904 75.0254C71.8904 77.4753 70.5983 79.2422 68.4758 79.8004C67.8297 79.9862 67.1534 80.0486 65.8916 80.0486H59.4634V62.1289H65.154C66.3229 62.1289 67.1224 62.1906 67.8297 62.3765C69.891 62.9347 71.2444 64.3611 71.2444 66.6238C71.2444 67.8331 70.8137 68.8566 70.1064 69.5383C69.7988 69.8482 69.3681 70.2206 68.7221 70.4994ZM63.0315 72.3904V77.1029H65.4925C66.2301 77.1029 66.9071 77.0412 67.3997 76.5759C67.8916 76.1106 68.107 75.5219 68.107 74.7466C68.107 74.1579 67.9529 73.5997 67.6453 73.1968C67.1224 72.5457 66.4764 72.3904 65.3694 72.3904H63.0315ZM63.0005 69.29H64.9999C65.615 69.29 65.9225 69.29 66.2301 69.1971C67.0612 68.9488 67.5841 68.2055 67.5841 67.182C67.5841 65.9733 67.0302 65.4456 66.2301 65.198C65.8916 65.1051 65.5537 65.0739 64.8767 65.0739H63.0005V69.29ZM77.2425 80.0486V65.1356H72.1058V62.1289H86.3788L85.3639 65.1356H80.8106V80.0486H77.2425ZM87.4858 80.0486V62.1289H99.0521L98.0373 65.1356H91.0236V69.1042H93.8844C96.1913 69.1042 97.3912 69.6624 98.2217 70.3752C98.8677 70.9334 99.9748 72.1733 99.9748 74.6232C99.9748 77.0412 98.8368 78.374 97.8832 79.0563C96.7761 79.8309 95.6072 80.0486 93.2383 80.0486H87.4858ZM91.0236 77.0412H93.7C94.7148 77.0412 95.3299 76.793 95.7606 76.2347C95.976 75.956 96.2835 75.4595 96.2835 74.5296C96.2835 73.5997 95.976 72.9486 95.3609 72.4833C94.9921 72.2045 94.4995 72.0499 93.669 72.0499H91.0236V77.0412Z" fill="#0D1627"/>
</g>
</g>
<defs>
<clipPath id="clip0_8320_4109">
<rect width="62.8347" height="22.5385" fill="white" transform="translate(37.2598 57.6855)"/>
</clipPath>
</defs>
</svg>
